<svg width="102" height="86" viewBox="0 0 102 86" fill="none" xmlns="http://www.w3.org/2000/svg">
<path d="M24.4253 2.19828L0 1.46552V0H24.4253V2.19828Z" fill="#0D3D2B"/>
<path d="M13.9225 57.3994H4.15234V58.8649H13.9225V57.3994Z" fill="#0D3D2B"/>
<path d="M93.33 69.4257L14.79 69.1991V67.8391L93.33 67.3857V69.4257Z" fill="#0D3D2B"/>
<path d="M16.1206 69.3679V54.957H13.9223V69.3679H16.1206Z" fill="#0D3D2B"/>
<path d="M24.4252 52.5137H13.9224V54.9562H24.4252V52.5137Z" fill="#0D3D2B"/>
<path d="M24.4254 0.244141V54.4683H22.9599L20.5173 0.244141H24.4254Z" fill="#0D3D2B"/>
<path d="M80.3636 67.5515C87.1919 67.5515 92.7273 62.0161 92.7273 55.1879C92.7273 48.3596 87.1919 42.8242 80.3636 42.8242C73.5354 42.8242 68 48.3596 68 55.1879C68 62.0161 73.5354 67.5515 80.3636 67.5515Z" fill="#CE3732"/>
<path d="M14.5795 27.3553L19.296 21.249H2.64771L14.5795 27.3553Z" fill="#0D3D2B"/>
<path d="M6.77563 58.4082L14.411 61.796L15.1144 58.9187L6.77563 58.4082Z" fill="#0D3D2B"/>
<path d="M86.6258 83.0647C85.7094 83.0647 84.9042 82.8601 84.2102 82.4508C83.5162 82.0415 82.969 81.4765 82.5687 80.7559C82.1772 80.0263 81.9814 79.1855 81.9814 78.2335C81.9814 77.2815 82.1772 76.4452 82.5687 75.7245C82.969 74.9949 83.5162 74.4255 84.2102 74.0163C84.9042 73.607 85.7094 73.4023 86.6258 73.4023C87.5422 73.4023 88.3518 73.607 89.0547 74.0163C89.7576 74.4255 90.3003 74.9949 90.6829 75.7245C91.0744 76.4452 91.2701 77.2815 91.2701 78.2335C91.2701 79.1855 91.0744 80.0263 90.6829 80.7559C90.3003 81.4765 89.7576 82.0415 89.0547 82.4508C88.3518 82.8601 87.5422 83.0647 86.6258 83.0647ZM86.6258 81.263C87.1685 81.263 87.6312 81.1385 88.0137 80.8893C88.4052 80.6402 88.7077 80.2932 88.9213 79.8484C89.1348 79.3946 89.2416 78.8563 89.2416 78.2335C89.2416 77.6107 89.1348 77.0769 88.9213 76.632C88.7077 76.1783 88.4052 75.8313 88.0137 75.5911C87.6312 75.3419 87.1685 75.2174 86.6258 75.2174C86.1008 75.2174 85.6426 75.3419 85.2512 75.5911C84.8597 75.8313 84.5572 76.1783 84.3437 76.632C84.1301 77.0769 84.0234 77.6107 84.0234 78.2335C84.0234 78.8563 84.1301 79.3946 84.3437 79.8484C84.5572 80.2932 84.8597 80.6402 85.2512 80.8893C85.6426 81.1385 86.1008 81.263 86.6258 81.263Z" fill="#0D3D2B"/>
<path d="M73.4019 82.7444V73.4023H77.0319C77.7882 73.4023 78.4154 73.5358 78.9137 73.8027C79.4208 74.0607 79.7945 74.4077 80.0347 74.8437C80.2838 75.2797 80.4084 75.7645 80.4084 76.2984C80.4084 76.7966 80.2883 77.2637 80.0481 77.6997C79.8167 78.1357 79.4519 78.4871 78.9537 78.754C78.4555 79.0209 77.8104 79.1544 77.0186 79.1544H75.4037V82.7444H73.4019ZM78.2197 82.7444L76.3379 78.6606H78.4866L80.4885 82.7444H78.2197ZM75.4037 77.713H76.9118C77.41 77.713 77.7748 77.5929 78.0062 77.3527C78.2464 77.1125 78.3665 76.7877 78.3665 76.3785C78.3665 75.9781 78.2464 75.6622 78.0062 75.4309C77.7748 75.1907 77.41 75.0706 76.9118 75.0706H75.4037V77.713Z" fill="#0D3D2B"/>
<path d="M58.1497 82.7444V73.4023H60.1515V76.939L63.3812 73.4023H65.8368L62.407 77.0991L65.9569 82.7444H63.5013L60.979 78.6472L60.1515 79.5414V82.7444H58.1497Z" fill="#0D3D2B"/>
<path d="M52.207 83.0647C51.5397 83.0647 50.9347 82.9535 50.3919 82.7311C49.8581 82.4997 49.4355 82.1616 49.1241 81.7168C48.8127 81.2719 48.6436 80.7247 48.6169 80.0752H50.7523C50.7612 80.3333 50.8279 80.5601 50.9525 80.7559C51.077 80.9516 51.2461 81.1073 51.4596 81.223C51.6731 81.3297 51.9223 81.3831 52.207 81.3831C52.4472 81.3831 52.6563 81.3475 52.8342 81.2764C53.0211 81.1963 53.1679 81.0851 53.2746 80.9427C53.3814 80.7915 53.4348 80.6046 53.4348 80.3822C53.4348 80.1509 53.3725 79.9551 53.2479 79.795C53.1234 79.6259 52.9543 79.4836 52.7408 79.3679C52.5273 79.2434 52.2781 79.1321 51.9934 79.0343C51.7176 78.9275 51.4196 78.8252 51.0993 78.7273C50.3608 78.4871 49.7914 78.1623 49.391 77.7531C48.9995 77.3438 48.8038 76.7966 48.8038 76.1115C48.8038 75.5421 48.9417 75.0572 49.2175 74.6568C49.5022 74.2476 49.8892 73.9362 50.3786 73.7226C50.8679 73.5091 51.424 73.4023 52.0468 73.4023C52.6874 73.4023 53.2524 73.5136 53.7417 73.736C54.2311 73.9495 54.6181 74.2654 54.9028 74.6835C55.1875 75.0928 55.3388 75.5822 55.3566 76.1516H53.2079C53.199 75.9558 53.1412 75.7779 53.0344 75.6177C52.9365 75.4576 52.7986 75.3286 52.6207 75.2307C52.4516 75.1328 52.2514 75.0839 52.0201 75.0839C51.8155 75.075 51.6286 75.1062 51.4596 75.1773C51.2994 75.2396 51.166 75.3419 51.0592 75.4843C50.9614 75.6177 50.9124 75.7868 50.9124 75.9914C50.9124 76.1872 50.9614 76.3607 51.0592 76.5119C51.166 76.6543 51.3083 76.7788 51.4863 76.8856C51.6731 76.9835 51.8867 77.0769 52.1269 77.1659C52.376 77.2548 52.6474 77.3438 52.941 77.4328C53.4125 77.5929 53.844 77.7842 54.2355 78.0066C54.6359 78.2202 54.9562 78.5049 55.1964 78.8608C55.4455 79.2078 55.5701 79.6704 55.5701 80.2487C55.5701 80.7559 55.4366 81.223 55.1697 81.65C54.9117 82.0771 54.5336 82.4197 54.0353 82.6777C53.546 82.9357 52.9365 83.0647 52.207 83.0647Z" fill="#0D3D2B"/>
<path d="M43.8506 82.7444V73.4023H45.8525V82.7444H43.8506Z" fill="#0D3D2B"/>
<path d="M36.1023 83.0647C35.1859 83.0647 34.3807 82.8601 33.6868 82.4508C32.9928 82.0415 32.4456 81.4765 32.0452 80.7559C31.6537 80.0263 31.458 79.1855 31.458 78.2335C31.458 77.2815 31.6537 76.4452 32.0452 75.7245C32.4456 74.9949 32.9928 74.4255 33.6868 74.0163C34.3807 73.607 35.1859 73.4023 36.1023 73.4023C37.0188 73.4023 37.8284 73.607 38.5313 74.0163C39.2342 74.4255 39.7769 74.9949 40.1595 75.7245C40.5509 76.4452 40.7467 77.2815 40.7467 78.2335C40.7467 79.1855 40.5509 80.0263 40.1595 80.7559C39.7769 81.4765 39.2342 82.0415 38.5313 82.4508C37.8284 82.8601 37.0188 83.0647 36.1023 83.0647ZM36.1023 81.263C36.6451 81.263 37.1077 81.1385 37.4903 80.8893C37.8818 80.6402 38.1843 80.2932 38.3978 79.8484C38.6114 79.3946 38.7181 78.8563 38.7181 78.2335C38.7181 77.6107 38.6114 77.0769 38.3978 76.632C38.1843 76.1783 37.8818 75.8313 37.4903 75.5911C37.1077 75.3419 36.6451 75.2174 36.1023 75.2174C35.5774 75.2174 35.1192 75.3419 34.7277 75.5911C34.3363 75.8313 34.0337 76.1783 33.8202 76.632C33.6067 77.0769 33.4999 77.6107 33.4999 78.2335C33.4999 78.8563 33.6067 79.3946 33.8202 79.8484C34.0337 80.2932 34.3363 80.6402 34.7277 80.8893C35.1192 81.1385 35.5774 81.263 36.1023 81.263Z" fill="#0D3D2B"/>
<path d="M25.5876 82.7444V75.0172H22.8784V73.4023H30.2987V75.0172H27.5895V82.7444H25.5876Z" fill="#0D3D2B"/>
<path d="M17.8891 83.0647C17.2218 83.0647 16.6168 82.9535 16.0741 82.7311C15.5402 82.4997 15.1176 82.1616 14.8062 81.7168C14.4948 81.2719 14.3258 80.7247 14.2991 80.0752H16.4344C16.4433 80.3333 16.51 80.5601 16.6346 80.7559C16.7591 80.9516 16.9282 81.1073 17.1417 81.223C17.3553 81.3297 17.6044 81.3831 17.8891 81.3831C18.1293 81.3831 18.3384 81.3475 18.5163 81.2764C18.7032 81.1963 18.85 81.0851 18.9568 80.9427C19.0635 80.7915 19.1169 80.6046 19.1169 80.3822C19.1169 80.1509 19.0546 79.9551 18.9301 79.795C18.8055 79.6259 18.6365 79.4836 18.4229 79.3679C18.2094 79.2434 17.9603 79.1321 17.6756 79.0343C17.3997 78.9275 17.1017 78.8252 16.7814 78.7273C16.0429 78.4871 15.4735 78.1623 15.0731 77.7531C14.6817 77.3438 14.4859 76.7966 14.4859 76.1115C14.4859 75.5421 14.6238 75.0572 14.8996 74.6568C15.1843 74.2476 15.5714 73.9362 16.0607 73.7226C16.5501 73.5091 17.1061 73.4023 17.7289 73.4023C18.3695 73.4023 18.9345 73.5136 19.4239 73.736C19.9132 73.9495 20.3002 74.2654 20.5849 74.6835C20.8697 75.0928 21.0209 75.5822 21.0387 76.1516H18.89C18.8811 75.9558 18.8233 75.7779 18.7165 75.6177C18.6187 75.4576 18.4808 75.3286 18.3028 75.2307C18.1338 75.1328 17.9336 75.0839 17.7023 75.0839C17.4976 75.075 17.3108 75.1062 17.1417 75.1773C16.9816 75.2396 16.8481 75.3419 16.7414 75.4843C16.6435 75.6177 16.5945 75.7868 16.5945 75.9914C16.5945 76.1872 16.6435 76.3607 16.7414 76.5119C16.8481 76.6543 16.9905 76.7788 17.1684 76.8856C17.3553 76.9835 17.5688 77.0769 17.809 77.1659C18.0581 77.2548 18.3295 77.3438 18.6231 77.4328C19.0947 77.5929 19.5262 77.7842 19.9177 78.0066C20.318 78.2202 20.6383 78.5049 20.8785 78.8608C21.1277 79.2078 21.2522 79.6704 21.2522 80.2487C21.2522 80.7559 21.1188 81.223 20.8519 81.65C20.5938 82.0771 20.2157 82.4197 19.7175 82.6777C19.2281 82.9357 18.6187 83.0647 17.8891 83.0647Z" fill="#0D3D2B"/>
</svg>
