<svg width="212" height="231" viewBox="0 0 212 231" fill="none" xmlns="http://www.w3.org/2000/svg">
<g clip-path="url(#clip0_1389_11005)">
<path d="M212 0H0V231H212V0Z" fill="#FDFDFC"/>
<path d="M105.65 31.9116C152.401 31.9118 190.3 69.8114 190.3 116.562C190.3 163.312 152.401 201.211 105.65 201.211C58.8997 201.211 21.0002 163.313 21 116.562C21 69.8113 58.8996 31.9116 105.65 31.9116Z" fill="#CE3732"/>
<path d="M103.592 70.1465H103.621L103.614 70.2344L103.624 70.2734H103.611L102.004 91.334L100.789 88.499V70.2734L89.0439 32.2012L93.7539 31L103.592 70.1465Z" fill="#EFEAE3"/>
<path d="M56.626 97.2373L56.665 97.4424L61.9922 104.75L75.3633 113.048L74.8691 113.205L61.5029 106.32V106.318L61.502 106.32L54.5811 99.5488L25.6504 88.2471L26.7168 83.6719L56.626 97.2373Z" fill="#EFEAE3"/>
<path d="M183.82 83.2583L154.228 98.2173L140.077 110.371L140.075 110.367L140.076 110.371L125.495 113.481L125.733 113.021L139.345 108.849L153.844 95.1665L153.845 95.1655L153.848 95.1636L153.895 95.1196L153.901 95.1323L182.322 78.8052L183.82 83.2583Z" fill="#EFEAE3"/>
<path d="M93.0427 146.829L89.1355 171.382L89.0945 171.367L72.8425 195.02L67.5769 192.59L86.6072 169.35L86.6921 169.417L92.2732 146.706L93.0427 146.829Z" fill="#EFEAE3"/>
<path d="M159.396 157.089L159.374 157.104L169.237 173.149L166.279 176.198L156.676 157.861L156.735 157.843L143.098 142.511L142.505 141.152L159.396 157.089Z" fill="#EFEAE3"/>
</g>
<defs>
<clipPath id="clip0_1389_11005">
<rect width="212" height="231" fill="white"/>
</clipPath>
</defs>
</svg>
