<svg width="212" height="231" viewBox="0 0 212 231" fill="none" xmlns="http://www.w3.org/2000/svg">
<rect width="212" height="231" fill="#FDFDFC"/>
<g clip-path="url(#clip0_1297_4317)">
<path d="M121.69 109.74L145.95 110.48L142.5 70.3V70.29L138.05 30H0V76.82V106.02V136.06V157V201H98V157H121.99L121.69 109.74Z" fill="#0D3D2B"/>
<path d="M94.8903 95L115 76L65 76.9686L94.8903 95Z" fill="#EFEAE3"/>
<path d="M96.9805 88.9702C101.123 88.9702 104.48 85.6124 104.48 81.4702C104.48 77.3281 101.123 73.9702 96.9805 73.9702C92.8383 73.9702 89.4805 77.3281 89.4805 81.4702C89.4805 85.6124 92.8383 88.9702 96.9805 88.9702Z" fill="#0D3D2B"/>
</g>
<defs>
<clipPath id="clip0_1297_4317">
<rect width="145.95" height="171" fill="white" transform="translate(0 30)"/>
</clipPath>
</defs>
</svg>
