<svg width="212" height="231" viewBox="0 0 212 231" fill="none" xmlns="http://www.w3.org/2000/svg">
<rect width="212" height="231" fill="#FDFDFC"/>
<rect width="110" height="63.4391" transform="matrix(-1 0 0 1 161 106.188)" fill="#0D3D2B"/>
<rect width="110" height="121.349" transform="matrix(-1 0 0 1 161 4.33594)" fill="#0D3D2B"/>
<rect width="89.3385" height="64.8941" transform="matrix(-1 0 0 1 140.338 161.77)" fill="#0D3D2B"/>
<path d="M152.27 107.513H58.566V162.869H152.27V107.513Z" fill="white"/>
<rect width="93.7036" height="113.566" transform="matrix(-1 0 0 1 152.27 12.1934)" fill="white"/>
<path d="M132.543 159.53H58.5659V220.262H132.543V159.53Z" fill="white"/>
<path d="M145.577 105.612H66.4236V155.808H145.577V105.612Z" fill="#0D3D2B"/>
<rect width="79.153" height="102.981" transform="matrix(-1 0 0 1 145.577 19.1772)" fill="#0D3D2B"/>
<path d="M125.498 152.749H66.4235V211.823H125.498V152.749Z" fill="#0D3D2B"/>
<path d="M137.429 103.926H75.1539V148.411H137.429V103.926Z" fill="white"/>
<rect width="62.2748" height="91.264" transform="matrix(-1 0 0 1 137.429 27.3252)" fill="white"/>
<path d="M117.349 145.473H75.1534V201.637H117.349V145.473Z" fill="white"/>
<path d="M130.735 97.1665H83.5925V141.981H130.735V97.1665Z" fill="#0D3D2B"/>
<rect width="47.1426" height="73.7788" transform="matrix(-1 0 0 1 130.735 35.1826)" fill="#0D3D2B"/>
<path d="M110.57 134.706H83.5926V193.78H110.57V134.706Z" fill="#0D3D2B"/>
<path d="M121.714 96.6475H92.6138V134.144H121.714V96.6475Z" fill="white"/>
<rect width="29.1004" height="61.7305" transform="matrix(-1 0 0 1 121.714 44.7861)" fill="white"/>
<path d="M102.217 128.013H92.6141V184.468H102.217V128.013Z" fill="white"/>
<circle cx="11.6402" cy="11.6402" r="11.6402" transform="matrix(-1 0 0 1 118.804 61.373)" fill="#CE3732"/>
</svg>
