<svg width="212" height="231" viewBox="0 0 212 231" fill="none" xmlns="http://www.w3.org/2000/svg">
<g clip-path="url(#clip0_1389_11113)">
<path d="M212 0H0V231H212V0Z" fill="#FDFDFC"/>
<path d="M138.193 111.45H46.6797V164.397H138.193V111.45Z" fill="#0D3D2B"/>
<path d="M126.729 28.162L112.557 20.6867L111.408 21.562L120.41 33.9626L113.645 40.171L109.165 41.1769C106.341 41.299 103.327 41.3524 100.116 41.3201L100.094 42.6257C102.963 42.6546 105.679 42.6164 108.247 42.5216L109.339 42.4776C109.981 42.4495 110.613 42.4175 111.235 42.3825L98.2036 54.3428L120.635 52.7908L119.01 59L120.429 59.5522L128.01 52.2808L130.159 52.1321L133.884 65.2648L144.847 51.116L155.166 50.4023L155.427 49.1545L148.324 46.6279L152.215 41.6066L141.493 35.9504C142.273 35.5313 144.94 33.6462 145.404 33.2842L142.573 33.6745L140.084 34.2333L143.91 12.3936L126.729 28.162ZM134.592 61.881L131.794 52.0191L133.433 51.9056L137.901 58.5579L138.703 56.5721L135.226 51.7815L142.825 51.2558L134.592 61.881ZM122.336 55.5625L122.978 52.783L125.726 52.4389L122.336 55.5625ZM121.076 51.3282L105.903 51.9973L115.355 42.1145C119.098 41.844 120.674 41.5692 123.695 41.0958L121.076 51.3282ZM127.952 44.3538L129.279 49.0312L127.199 51.0264L122.972 51.2071L125.417 40.8613L127.952 44.3538ZM129.794 50.8469L129.482 50.8683L129.732 50.629L129.794 50.8469ZM132.527 50.6575L131.43 50.7334L131.043 49.3714L131.368 49.0599L132.527 50.6575ZM146.535 47.2108L143.834 50.0493L134.32 50.5338L132.478 47.9951L136.717 43.9288L146.535 47.2108ZM154.401 49.5788L145.731 50.043L147.62 47.6425L154.401 49.5788ZM135.171 43.3791L131.608 46.7971L129.482 43.8679L128.689 41.0736L135.171 43.3791ZM151.123 41.6102L147.345 46.3374L137.804 42.8866L138.722 42.0057L139.625 36.8536C139.739 36.8038 140.157 36.6157 140.266 36.5662L151.123 41.6102ZM137.178 41.4547L136.258 42.3365L129.622 39.9763C130.697 39.7351 131.711 39.4856 132.663 39.2298C134.654 38.6945 136.384 38.132 137.857 37.5733L137.178 41.4547ZM124.196 39.1794L124.058 39.7061C122.254 40.0013 120.314 40.2682 118.233 40.4963L124.182 39.1599L124.196 39.1794ZM123.336 37.9949L116.973 39.7297L121.294 35.3234L123.336 37.9949ZM138.047 36.0464C136.48 36.6854 134.523 37.3534 132.149 37.9915C130.907 38.3251 129.555 38.6492 128.089 38.9568L127.909 38.3231L138.047 36.0464ZM126.383 38.8248L126.109 38.727L126.341 38.6753L126.383 38.8248ZM136.712 34.9911L124.955 37.6311L122.374 34.2315L127.019 29.8781L136.712 34.9911ZM138.425 34.3319L128.1 28.8853L140.74 16.1044L138.425 34.3319ZM125.648 29.1549L121.54 32.9253L114.556 23.3035L125.648 29.1549Z" fill="#CE3732"/>
<path d="M118.462 32.1201L121.528 16.3936L122.931 16.0474L126.943 30.836L136.021 29.4613L139.615 26.6028C141.481 24.48 143.413 22.1656 145.401 19.6448L146.433 20.446C144.656 22.6987 142.922 24.7906 141.238 26.7312L140.519 27.5539C140.094 28.0361 139.673 28.5084 139.255 28.9714L156.744 26.3227L141.466 42.8207L147.322 45.4495L146.862 46.9004L136.444 48.2446L134.98 49.825L142.873 60.9632L124.977 60.628L117.949 68.2173L116.813 67.6384L119.3 60.5213L112.949 60.4029L115.268 48.5043C114.453 48.8487 111.311 49.7438 110.739 49.8781L112.818 47.9181L114.815 46.3297L95.4048 35.6119L118.462 32.1201ZM139.793 59.3927L133.867 51.028L132.75 52.2332L135.129 59.8854L133.08 59.2646L131.529 53.552L126.354 59.1409L139.793 59.3927ZM142.558 45.8837L139.991 44.6402L137.999 46.565L142.558 45.8837ZM140.051 42.2466L150.088 30.8487L136.463 32.0118C133.905 34.7573 132.702 35.8131 130.439 37.8685L140.051 42.2466ZM130.306 43.2276L133.117 47.1948L135.976 46.826L138.767 43.6478L129.176 39.0626L130.306 43.2276ZM134.208 48.7349L134.42 48.5056L134.077 48.5498L134.208 48.7349ZM132.347 50.7447L133.094 49.9376L132.275 48.7826L131.829 48.84L132.347 50.7447ZM120.877 59.493L124.781 59.1701L131.125 52.0638L130.304 49.0367L124.477 49.7884L120.877 59.493ZM117.787 67.1051L123.587 60.6435L120.532 60.6091L117.787 67.1051ZM125.019 48.2394L129.916 47.6078L128.968 44.1145L127.289 41.7447L125.019 48.2394ZM113.637 59.5539L119.688 59.5762L122.984 49.9812L121.722 50.1437L117.143 47.6159C117.033 47.673 116.624 47.8809 116.517 47.9349L113.637 59.5539ZM122.262 48.5951L123.525 48.432L125.849 41.7828C124.987 42.4694 124.157 43.1022 123.361 43.683C121.695 44.8986 120.172 45.8928 118.812 46.6902L122.262 48.5951ZM128.632 37.0569L129.128 37.2802C130.49 36.0603 131.915 34.7161 133.397 33.2384L128.625 37.0339L128.632 37.0569ZM128.248 35.6444L133.591 31.7762L127.449 32.3782L128.248 35.6444ZM117.505 45.88C118.985 45.0605 120.733 43.9549 122.719 42.5061C123.757 41.7486 124.858 40.8985 126.017 39.9495L125.636 39.4119L117.505 45.88ZM126.984 38.5381L127.079 38.2635L126.894 38.4114L126.984 38.5381ZM117.52 44.1782L126.95 36.6771L125.921 32.5347L119.617 33.4219L117.52 44.1782ZM115.932 45.0995L118.165 33.6416L100.283 35.4706L115.932 45.0995ZM119.913 31.9008L125.427 31.0658L122.313 19.5915L119.913 31.9008Z" fill="#CE3732"/>
<path d="M63.6777 157.862V171.261H97.9941V174.529L83.832 174.934L63.6777 182.371V218H138.195V157.862H63.6777ZM63.6768 173.222L63.6729 173.223V182.373L63.6777 182.371V171.261L63.6768 173.222Z" fill="#0D3D2B"/>
<path d="M46.6816 127.792H138.195V83.5674C111.015 81.8835 89.4912 59.3066 89.4912 31.7021C89.4912 30.0493 89.5698 28.4142 89.7207 26.8008H46.6816V127.792ZM96.3564 78.6035L66.4512 94.292L55.8291 76.4795L96.3564 78.6035Z" fill="#0D3D2B"/>
</g>
<defs>
<clipPath id="clip0_1389_11113">
<rect width="212" height="231" fill="white"/>
</clipPath>
</defs>
</svg>
