<svg width="212" height="231" viewBox="0 0 212 231" fill="none" xmlns="http://www.w3.org/2000/svg">
<rect width="212" height="231" fill="#FDFDFC"/>
<g clip-path="url(#clip0_1297_4311)">
<path d="M178.619 104.295H55.2793V158.475H178.619V104.295Z" fill="#0D3D2B"/>
<path d="M155.719 151.785H55.2793V213.325H155.719V151.785Z" fill="#0D3D2B"/>
<path d="M178.629 17.665V121.015H55.2891V17.665H178.629ZM106.829 67.505L145.369 78.715L159.689 60.485L106.829 67.505Z" fill="#0D3D2B"/>
<path d="M166.91 178.225L121.06 179.395L118.86 181.345H166.51L165.46 189.615L120.65 190.755L118.5 192.695L165.07 192.725L164.44 197.715L128.39 205.635L2.49 202.395L0 156.105L25.93 156.755L49.77 141.915L97.55 145.515L98.71 153.855L67.46 154.985L65.94 156.525L99.08 156.285L99.1 156.095L137.48 156.655L168.65 164.395L166.9 178.205L166.91 178.225ZM120 168.455L117.72 170.405L167.64 170.365L167.97 167.245L120 168.465V168.455Z" fill="#CE3732"/>
<path d="M141.48 75.645C145.35 75.645 148.48 72.515 148.48 68.645C148.48 64.775 145.35 61.645 141.48 61.645C137.61 61.645 134.48 64.775 134.48 68.645C134.48 72.515 137.61 75.645 141.48 75.645Z" fill="#0D3D2B"/>
</g>
<defs>
<clipPath id="clip0_1297_4311">
<rect width="178.63" height="195.67" fill="white" transform="translate(0 17.665)"/>
</clipPath>
</defs>
</svg>
