<svg width="212" height="231" viewBox="0 0 212 231" fill="none" xmlns="http://www.w3.org/2000/svg">
<g clip-path="url(#clip0_1383_10968)">
<path d="M212 0H0V231H212V0Z" fill="#FDFDFC"/>
<mask id="mask0_1383_10968" style="mask-type:luminance" maskUnits="userSpaceOnUse" x="0" y="17" width="179" height="197">
<path d="M178.63 17.665H0V213.335H178.63V17.665Z" fill="white"/>
</mask>
<g mask="url(#mask0_1383_10968)">
<path d="M178.619 104.295H55.2793V158.475H178.619V104.295Z" fill="#0D3D2B"/>
<path d="M155.719 151.785H55.2793V213.325H155.719V151.785Z" fill="#0D3D2B"/>
<path d="M178.629 17.665V121.015H55.2891V17.665H178.629ZM106.829 67.505L145.369 78.715L159.689 60.485L106.829 67.505Z" fill="#0D3D2B"/>
<path d="M166.91 178.225L121.06 179.395L118.86 181.345H166.51L165.46 189.615L120.65 190.755L118.5 192.695L165.07 192.725L164.44 197.715L128.39 205.635L2.49 202.395L0 156.105L25.93 156.755L49.77 141.915L97.55 145.515L98.71 153.855L67.46 154.985L65.94 156.525L99.08 156.285L99.1 156.095L137.48 156.655L168.65 164.395L166.9 178.205L166.91 178.225ZM120 168.455L117.72 170.405L167.64 170.365L167.97 167.245L120 168.465V168.455Z" fill="#CE3732"/>
</g>
</g>
<defs>
<clipPath id="clip0_1383_10968">
<rect width="212" height="231" fill="white"/>
</clipPath>
</defs>
</svg>
