<svg width="212" height="231" viewBox="0 0 212 231" fill="none" xmlns="http://www.w3.org/2000/svg">
<g clip-path="url(#clip0_1389_11114)">
<path d="M212 0H0V231H212V0Z" fill="#FDFDFC"/>
<path d="M205.999 107.295H110.273V162.68H205.999V107.295Z" fill="#CE3732"/>
<path d="M205.999 155.842H128.051V212.252H205.999V155.842Z" fill="#CE3732"/>
<path d="M83.9482 155.842V173.276L48.7363 171.227V174.646L57.8662 174.911L83.9482 186.782V212.252H6V155.842H83.9482ZM83.9492 173.277V186.783L83.9482 186.782V173.276L83.9492 173.277Z" fill="#0D3D2B"/>
<path d="M206 124.389H110.273V18.748H206V124.389ZM120.341 69.585L133.886 86.3174L160.953 66.6914L120.341 69.585Z" fill="#CE3732"/>
<path d="M101.727 18.748V162.509H6V18.748H101.727ZM46.3418 68.8818L75.9141 85.9277L87.0254 67.2949L46.3418 68.8818Z" fill="#0D3D2B"/>
</g>
<defs>
<clipPath id="clip0_1389_11114">
<rect width="212" height="231" fill="white"/>
</clipPath>
</defs>
</svg>
