<svg width="182" height="118" viewBox="0 0 182 118" fill="none" xmlns="http://www.w3.org/2000/svg">
<rect width="36.1542" height="36.1542" rx="18.0771" transform="matrix(-1 0 0 1 181.327 62.6475)" fill="#CE3732"/>
<path d="M91.1835 82.9531L105.981 108.583H76.3861L91.1835 82.9531Z" fill="#0D3D2B"/>
<path d="M38.3382 21.2569L57.1113 11.2909L58.6403 12.4455L46.75 28.9138L55.7537 37.1091L61.7031 38.4219C65.4509 38.5712 69.4513 38.6287 73.7114 38.5717L73.7473 40.3013C69.9403 40.3522 66.3353 40.3136 62.9273 40.1994L61.4784 40.1459C60.6267 40.1115 59.7877 40.0718 58.9613 40.0282L76.3072 55.8161L46.5336 53.8589L48.7172 62.0779L46.8377 62.8157L36.7454 53.2157L33.8932 53.0282L29.0079 70.4432L14.3974 51.7469L0.701443 50.8469L0.348877 49.195L9.76352 45.8163L4.57756 39.1811L18.7806 31.6403C17.7442 31.0886 14.1964 28.6029 13.5792 28.1253L17.3374 28.6299L20.6432 29.3593L15.4699 0.442383L38.3382 21.2569ZM28.0527 65.9634L31.7224 52.8857L29.5473 52.7426L23.6477 61.5755L22.5746 58.9481L27.1671 52.5861L17.081 51.9232L28.0527 65.9634ZM44.289 57.5384L43.4252 53.8589L39.7766 53.4151L44.289 57.5384ZM45.9423 51.9232L66.0793 52.7426L53.4937 39.6914C48.5258 39.3494 46.4321 38.9924 42.4222 38.3785L45.9423 51.9232ZM36.7875 42.7136L35.0471 48.9162L37.8164 51.5503L43.4252 51.7711L40.1362 38.0755L36.7875 42.7136ZM34.3715 51.3239L34.7852 51.351L34.453 51.035L34.3715 51.3239ZM30.744 51.0851L32.2006 51.1809L32.707 49.3746L32.2751 48.9635L30.744 51.0851ZM12.1409 46.5806L15.7368 50.3293L28.3638 50.9291L30.7974 47.5577L25.1535 42.1892L12.1409 46.5806ZM1.71279 49.7526L13.2197 50.3293L10.7025 47.1573L1.71279 49.7526ZM27.2029 41.4542L31.9464 45.9667L34.755 42.0766L35.7944 38.3712L27.2029 41.4542ZM6.02786 39.1811L11.0621 45.4271L23.7067 40.8133L22.4847 39.6503L21.2634 32.8287C21.1126 32.7632 20.5567 32.5158 20.4114 32.4507L6.02786 39.1811ZM24.532 38.9136L25.7561 40.0777L34.552 36.9215C33.1235 36.6067 31.7776 36.2807 30.5137 35.946C27.8681 35.2456 25.5709 34.508 23.6126 33.7743L24.532 38.9136ZM41.7487 35.8418L41.9334 36.5391C44.3287 36.9222 46.905 37.2672 49.6674 37.5602L41.767 35.8159L41.7487 35.8418ZM42.8844 34.2688L51.3361 36.5391L45.5827 30.7206L42.8844 34.2688ZM23.3549 31.7524C25.4366 32.5919 28.0371 33.4683 31.19 34.3031C32.8386 34.7397 34.6348 35.1631 36.5817 35.5642L36.8177 34.7239L23.3549 31.7524ZM38.8446 35.3817L39.2077 35.251L38.9001 35.1834L38.8446 35.3817ZM25.1219 30.3483L40.7346 33.794L44.1443 29.2787L37.9618 23.5317L25.1219 30.3483ZM22.845 29.4826L36.522 22.2212L19.6923 5.34456L22.845 29.4826ZM39.7773 22.5675L45.2456 27.5446L54.4706 14.7665L39.7773 22.5675Z" fill="#0D3D2B"/>
</svg>
