<svg width="212" height="231" viewBox="0 0 212 231" fill="none" xmlns="http://www.w3.org/2000/svg">
<rect width="212" height="231" fill="#FDFDFC"/>
<path d="M108.657 99.2931C115.631 99.2747 122.539 100.63 128.988 103.281C135.438 105.933 141.302 109.829 146.246 114.747C151.189 119.664 155.116 125.508 157.802 131.943C160.487 138.378 161.879 145.28 161.897 152.253C161.916 159.226 160.56 166.134 157.909 172.584C155.257 179.033 151.362 184.897 146.444 189.841C141.526 194.785 135.683 198.712 129.247 201.397C122.812 204.083 115.911 205.474 108.938 205.493L108.798 152.393L108.657 99.2931Z" fill="#CE3732"/>
<path d="M103.062 25.5077C96.0891 25.5261 89.1879 26.9178 82.7526 29.6033C76.3172 32.2889 70.4739 36.2156 65.5561 41.1594C60.6384 46.1032 56.7425 51.9672 54.091 58.4166C51.4395 64.866 50.0843 71.7745 50.1027 78.7477C50.1211 85.7208 51.5128 92.6221 54.1983 99.0574C56.8838 105.493 60.8105 111.336 65.7543 116.254C70.6981 121.172 76.5621 125.067 83.0115 127.719C89.4609 130.37 96.3694 131.726 103.343 131.707L103.202 78.6075L103.062 25.5077Z" fill="#0D3D2B"/>
</svg>
