<svg width="500" height="310" viewBox="0 0 500 310" fill="none" xmlns="http://www.w3.org/2000/svg">
<path d="M295 162.5C295 181.87 291.185 201.05 283.772 218.946C276.36 236.841 265.495 253.102 251.798 266.798C238.102 280.495 221.841 291.36 203.946 298.772C186.05 306.185 166.87 310 147.5 310C128.13 310 108.95 306.185 91.0542 298.772C73.1587 291.36 56.8984 280.495 43.2017 266.798C29.5051 253.102 18.6403 236.841 11.2278 218.946C3.8152 201.05 -1.69338e-06 181.87 0 162.5L147.5 162.5H295Z" fill="#CE3732"/>
<path d="M500 147.5C500 128.13 496.185 108.95 488.772 91.0542C481.36 73.1587 470.495 56.8984 456.798 43.2018C443.102 29.5051 426.841 18.6404 408.946 11.2278C391.05 3.81519 371.87 0 352.5 0C333.13 0 313.95 3.81522 296.054 11.2278C278.159 18.6404 261.898 29.5051 248.202 43.2018C234.505 56.8984 223.64 73.1587 216.228 91.0542C208.815 108.95 205 128.13 205 147.5L352.5 147.5H500Z" fill="#CE3732"/>
</svg>
