<svg width="804" height="276" viewBox="0 0 804 276" fill="none" xmlns="http://www.w3.org/2000/svg">
<path d="M30.55 188.82C28.2967 188.82 26.4333 188.733 24.96 188.56C23.5733 188.387 22.1867 188.17 20.8 187.91C19.4133 187.65 17.7233 187.433 15.73 187.26C13.7367 187.087 11.0067 187 7.54 187L2.99 153.2H4.55C5.85 163.86 8.79667 172.093 13.39 177.9C18.07 183.62 24.05 186.48 31.33 186.48C36.7033 186.48 41.08 184.963 44.46 181.93C47.84 178.897 49.53 174.953 49.53 170.1C49.53 168.02 49.14 166.027 48.36 164.12C47.6667 162.213 46.4533 160.177 44.72 158.01C42.9867 155.843 40.69 153.503 37.83 150.99C34.97 148.39 31.4167 145.487 27.17 142.28L21.84 138.25C15.34 133.31 10.8333 128.89 8.32 124.99C5.80667 121.09 4.55 116.843 4.55 112.25C4.55 104.623 7.32333 98.6433 12.87 94.31C18.5033 89.89 25.9133 87.68 35.1 87.68C37.3533 87.68 39.1733 87.7667 40.56 87.94C42.0333 88.1133 43.42 88.33 44.72 88.59C46.1067 88.85 47.71 89.0667 49.53 89.24C51.35 89.4133 53.69 89.5 56.55 89.5L57.85 115.76H56.55C55.3367 107.7 52.7367 101.33 48.75 96.65C44.7633 91.97 39.9533 89.63 34.32 89.63C30.3333 89.63 27.1267 90.8 24.7 93.14C22.36 95.48 21.19 98.6 21.19 102.5C21.19 105.88 22.2733 109.13 24.44 112.25C26.6933 115.283 30.55 118.837 36.01 122.91L41.6 127.07C47.32 131.23 51.8267 135.087 55.12 138.64C58.5 142.107 60.9267 145.487 62.4 148.78C63.8733 152.073 64.61 155.583 64.61 159.31C64.61 165.03 63.18 170.1 60.32 174.52C57.46 178.94 53.4733 182.407 48.36 184.92C43.3333 187.347 37.3967 188.647 30.55 188.82ZM87.5357 187L87.6657 185.7H87.7957C90.9157 185.7 93.429 184.747 95.3357 182.84C97.2424 180.933 98.1957 178.42 98.1957 175.3V91.32H94.4257C90.179 91.32 86.019 92.0133 81.9457 93.4C77.8724 94.7 74.3624 97.1267 71.4157 100.68C68.469 104.147 66.4757 109.173 65.4357 115.76H64.1357L67.7757 89.5H148.766L152.536 115.76H151.236C150.196 109.26 148.159 104.233 145.126 100.68C142.179 97.1267 138.626 94.7 134.466 93.4C130.392 92.0133 126.146 91.32 121.726 91.32H118.346V175.3C118.346 178.42 119.299 180.933 121.206 182.84C123.112 184.747 125.626 185.7 128.746 185.7L128.876 187H87.5357ZM206.113 188.82C195.713 188.82 186.57 186.74 178.683 182.58C170.883 178.333 164.773 172.44 160.353 164.9C156.02 157.273 153.853 148.39 153.853 138.25C153.853 128.11 156.02 119.27 160.353 111.73C164.773 104.103 170.883 98.21 178.683 94.05C186.57 89.8033 195.713 87.68 206.113 87.68C216.513 87.68 225.613 89.8033 233.413 94.05C241.3 98.21 247.41 104.103 251.743 111.73C256.163 119.27 258.373 128.11 258.373 138.25C258.373 148.39 256.163 157.273 251.743 164.9C247.41 172.44 241.3 178.333 233.413 182.58C225.613 186.74 216.513 188.82 206.113 188.82ZM206.113 186.74C210.62 186.74 214.736 185.57 218.463 183.23C222.19 180.89 225.396 177.597 228.083 173.35C230.683 169.103 232.676 163.99 234.063 158.01C235.536 152.03 236.273 145.4 236.273 138.12C236.273 130.84 235.536 124.21 234.063 118.23C232.676 112.163 230.683 107.007 228.083 102.76C225.396 98.5133 222.19 95.22 218.463 92.88C214.736 90.54 210.62 89.37 206.113 89.37C201.606 89.37 197.49 90.54 193.763 92.88C190.036 95.22 186.873 98.5133 184.273 102.76C181.586 107.007 179.506 112.163 178.033 118.23C176.646 124.21 175.953 130.84 175.953 138.12C175.953 145.4 176.646 152.03 178.033 158.01C179.506 163.99 181.586 169.103 184.273 173.35C186.873 177.597 190.036 180.89 193.763 183.23C197.49 185.57 201.606 186.74 206.113 186.74ZM261.523 187V185.7H261.653C264.773 185.7 267.287 184.747 269.193 182.84C271.1 180.933 272.053 178.42 272.053 175.3V101.2C272.053 98.08 271.1 95.5667 269.193 93.66C267.287 91.7533 264.773 90.8 261.653 90.8H261.523V89.5H302.733V90.8H302.603C299.483 90.8 296.97 91.7533 295.063 93.66C293.157 95.5667 292.203 98.08 292.203 101.2V175.3C292.203 178.42 293.157 180.933 295.063 182.84C296.97 184.747 299.483 185.7 302.603 185.7H302.733V187H261.523ZM333.333 188.82C331.08 188.82 329.217 188.733 327.743 188.56C326.357 188.387 324.97 188.17 323.583 187.91C322.197 187.65 320.507 187.433 318.513 187.26C316.52 187.087 313.79 187 310.323 187L305.773 153.2H307.333C308.633 163.86 311.58 172.093 316.173 177.9C320.853 183.62 326.833 186.48 334.113 186.48C339.487 186.48 343.863 184.963 347.243 181.93C350.623 178.897 352.313 174.953 352.313 170.1C352.313 168.02 351.923 166.027 351.143 164.12C350.45 162.213 349.237 160.177 347.503 158.01C345.77 155.843 343.473 153.503 340.613 150.99C337.753 148.39 334.2 145.487 329.953 142.28L324.623 138.25C318.123 133.31 313.617 128.89 311.103 124.99C308.59 121.09 307.333 116.843 307.333 112.25C307.333 104.623 310.107 98.6433 315.653 94.31C321.287 89.89 328.697 87.68 337.883 87.68C340.137 87.68 341.957 87.7667 343.343 87.94C344.817 88.1133 346.203 88.33 347.503 88.59C348.89 88.85 350.493 89.0667 352.313 89.24C354.133 89.4133 356.473 89.5 359.333 89.5L360.633 115.76H359.333C358.12 107.7 355.52 101.33 351.533 96.65C347.547 91.97 342.737 89.63 337.103 89.63C333.117 89.63 329.91 90.8 327.483 93.14C325.143 95.48 323.973 98.6 323.973 102.5C323.973 105.88 325.057 109.13 327.223 112.25C329.477 115.283 333.333 118.837 338.793 122.91L344.383 127.07C350.103 131.23 354.61 135.087 357.903 138.64C361.283 142.107 363.71 145.487 365.183 148.78C366.657 152.073 367.393 155.583 367.393 159.31C367.393 165.03 365.963 170.1 363.103 174.52C360.243 178.94 356.257 182.407 351.143 184.92C346.117 187.347 340.18 188.647 333.333 188.82ZM368.545 187V185.7H369.065C372.185 185.7 374.698 184.747 376.605 182.84C378.512 180.933 379.465 178.42 379.465 175.3V101.2C379.465 98.08 378.512 95.5667 376.605 93.66C374.698 91.7533 372.185 90.8 369.065 90.8H368.545V89.5H408.455V90.8H407.935C404.815 90.8 402.302 91.7533 400.395 93.66C398.488 95.5667 397.535 98.08 397.535 101.2V133.44L430.815 103.28C434.368 100.073 436.145 97.2133 436.145 94.7C436.145 92.1 434.152 90.8 430.165 90.8H430.035V89.5H457.595V90.8C455.862 90.8867 453.782 91.2767 451.355 91.97C449.015 92.6633 446.675 93.5733 444.335 94.7C441.995 95.74 440.002 96.9967 438.355 98.47L410.795 123.82L456.945 179.2C458.505 181.107 460.195 182.667 462.015 183.88C463.835 185.093 465.612 185.7 467.345 185.7V187H428.865V185.7C432.505 185.7 434.758 185.007 435.625 183.62C436.578 182.147 436.102 180.283 434.195 178.03L397.535 134.09V175.3C397.535 178.42 398.488 180.933 400.395 182.84C402.302 184.747 404.815 185.7 407.935 185.7H408.455V187H368.545ZM490.293 187V185.7C493.413 185.7 495.926 184.747 497.833 182.84C499.74 180.933 500.693 178.42 500.693 175.3V101.2C500.693 98.08 499.74 95.5667 497.833 93.66C495.926 91.7533 493.413 90.8 490.293 90.8V89.5H533.713C539.953 89.5 545.37 90.5833 549.963 92.75C554.643 94.83 558.24 97.7767 560.753 101.59C563.353 105.317 564.653 109.693 564.653 114.72C564.653 121.047 562.703 126.463 558.803 130.97C554.903 135.477 549.616 138.207 542.943 139.16C544.416 139.593 546.15 140.893 548.143 143.06C550.223 145.227 552.216 147.913 554.123 151.12L570.503 179.2C571.716 181.193 573.146 182.797 574.793 184.01C576.526 185.137 578.433 185.7 580.513 185.7V187H553.603C552.39 185.007 551.09 182.84 549.703 180.5C548.403 178.16 547.19 175.993 546.063 174L533.323 150.6C531.763 147.74 530.42 145.53 529.293 143.97C528.253 142.323 527.17 141.197 526.043 140.59C525.003 139.983 523.66 139.68 522.013 139.68H520.713V175.3C520.713 178.42 521.666 180.933 523.573 182.84C525.48 184.747 527.993 185.7 531.113 185.7H531.373V187H490.293ZM520.713 137.99H527.343C532.976 137.99 537.44 135.823 540.733 131.49C544.113 127.157 545.803 121.523 545.803 114.59C545.803 107.57 544.2 101.937 540.993 97.69C537.786 93.3567 533.54 91.19 528.253 91.19H520.713V137.99Z" fill="#0D3D2B"/>
<path d="M2.31 236V215H15.09V217.07H4.83V224.45H13.56V226.49H4.83V236H2.31ZM18.4819 236V215H21.0019V236H18.4819ZM25.6303 236V215H28.1503V233.99H37.9303V236H25.6303ZM48.4849 236.36C46.5649 236.36 44.8749 235.91 43.4149 235.01C41.9549 234.09 40.8149 232.82 39.9949 231.2C39.1749 229.56 38.7649 227.66 38.7649 225.5C38.7649 223.36 39.1749 221.48 39.9949 219.86C40.8149 218.22 41.9549 216.94 43.4149 216.02C44.8749 215.1 46.5649 214.64 48.4849 214.64C50.4449 214.64 52.1549 215.1 53.6149 216.02C55.0749 216.94 56.2049 218.22 57.0049 219.86C57.8049 221.48 58.2049 223.36 58.2049 225.5C58.2049 227.66 57.8049 229.56 57.0049 231.2C56.2049 232.82 55.0749 234.09 53.6149 235.01C52.1549 235.91 50.4449 236.36 48.4849 236.36ZM48.4849 234.14C49.9249 234.14 51.1749 233.8 52.2349 233.12C53.3149 232.42 54.1449 231.43 54.7249 230.15C55.3249 228.85 55.6249 227.3 55.6249 225.5C55.6249 223.7 55.3249 222.16 54.7249 220.88C54.1449 219.58 53.3149 218.59 52.2349 217.91C51.1749 217.23 49.9249 216.89 48.4849 216.89C47.0649 216.89 45.8149 217.23 44.7349 217.91C43.6749 218.59 42.8449 219.58 42.2449 220.88C41.6449 222.16 41.3449 223.7 41.3449 225.5C41.3449 227.3 41.6449 228.85 42.2449 230.15C42.8449 231.43 43.6749 232.42 44.7349 233.12C45.8149 233.8 47.0649 234.14 48.4849 234.14ZM68.7077 236.36C67.1677 236.36 65.8277 236.08 64.6877 235.52C63.5477 234.96 62.6677 234.18 62.0477 233.18C61.4277 232.18 61.1177 231.02 61.1177 229.7H63.7577C63.7577 230.52 63.9477 231.28 64.3277 231.98C64.7077 232.66 65.2577 233.21 65.9777 233.63C66.7177 234.03 67.6277 234.23 68.7077 234.23C69.6477 234.23 70.4477 234.08 71.1077 233.78C71.7877 233.46 72.2977 233.03 72.6377 232.49C72.9977 231.95 73.1777 231.34 73.1777 230.66C73.1777 229.9 73.0077 229.27 72.6677 228.77C72.3477 228.25 71.8977 227.83 71.3177 227.51C70.7377 227.17 70.0677 226.87 69.3077 226.61C68.5477 226.35 67.7277 226.08 66.8477 225.8C65.0877 225.24 63.8077 224.54 63.0077 223.7C62.2277 222.84 61.8377 221.74 61.8377 220.4C61.8377 219.26 62.0977 218.26 62.6177 217.4C63.1577 216.54 63.9177 215.87 64.8977 215.39C65.8977 214.89 67.0777 214.64 68.4377 214.64C69.7777 214.64 70.9377 214.89 71.9177 215.39C72.9177 215.89 73.6977 216.58 74.2577 217.46C74.8177 218.32 75.0977 219.32 75.0977 220.46H72.4577C72.4577 219.88 72.3077 219.31 72.0077 218.75C71.7077 218.19 71.2477 217.73 70.6277 217.37C70.0277 216.99 69.2677 216.8 68.3477 216.8C67.5877 216.78 66.9077 216.91 66.3077 217.19C65.7277 217.45 65.2677 217.83 64.9277 218.33C64.6077 218.83 64.4477 219.44 64.4477 220.16C64.4477 220.84 64.5877 221.39 64.8677 221.81C65.1677 222.23 65.5877 222.59 66.1277 222.89C66.6877 223.17 67.3377 223.43 68.0777 223.67C68.8177 223.91 69.6377 224.18 70.5377 224.48C71.5577 224.82 72.4577 225.24 73.2377 225.74C74.0377 226.22 74.6577 226.84 75.0977 227.6C75.5577 228.36 75.7877 229.33 75.7877 230.51C75.7877 231.51 75.5177 232.46 74.9777 233.36C74.4577 234.24 73.6777 234.96 72.6377 235.52C71.5977 236.08 70.2877 236.36 68.7077 236.36ZM88.4459 236.36C86.5259 236.36 84.8359 235.91 83.3759 235.01C81.9159 234.09 80.7759 232.82 79.9559 231.2C79.1359 229.56 78.7259 227.66 78.7259 225.5C78.7259 223.36 79.1359 221.48 79.9559 219.86C80.7759 218.22 81.9159 216.94 83.3759 216.02C84.8359 215.1 86.5259 214.64 88.4459 214.64C90.4059 214.64 92.1159 215.1 93.5759 216.02C95.0359 216.94 96.1659 218.22 96.9659 219.86C97.7659 221.48 98.1659 223.36 98.1659 225.5C98.1659 227.66 97.7659 229.56 96.9659 231.2C96.1659 232.82 95.0359 234.09 93.5759 235.01C92.1159 235.91 90.4059 236.36 88.4459 236.36ZM88.4459 234.14C89.8859 234.14 91.1359 233.8 92.1959 233.12C93.2759 232.42 94.1059 231.43 94.6859 230.15C95.2859 228.85 95.5859 227.3 95.5859 225.5C95.5859 223.7 95.2859 222.16 94.6859 220.88C94.1059 219.58 93.2759 218.59 92.1959 217.91C91.1359 217.23 89.8859 216.89 88.4459 216.89C87.0259 216.89 85.7759 217.23 84.6959 217.91C83.6359 218.59 82.8059 219.58 82.2059 220.88C81.6059 222.16 81.3059 223.7 81.3059 225.5C81.3059 227.3 81.6059 228.85 82.2059 230.15C82.8059 231.43 83.6359 232.42 84.6959 233.12C85.7759 233.8 87.0259 234.14 88.4459 234.14ZM101.949 236V215H114.729V217.07H104.469V224.45H113.199V226.49H104.469V236H101.949ZM118.121 236V215H120.641V236H118.121ZM131.989 236.36C130.449 236.36 129.109 236.08 127.969 235.52C126.829 234.96 125.949 234.18 125.329 233.18C124.709 232.18 124.399 231.02 124.399 229.7H127.039C127.039 230.52 127.229 231.28 127.609 231.98C127.989 232.66 128.539 233.21 129.259 233.63C129.999 234.03 130.909 234.23 131.989 234.23C132.929 234.23 133.729 234.08 134.389 233.78C135.069 233.46 135.579 233.03 135.919 232.49C136.279 231.95 136.459 231.34 136.459 230.66C136.459 229.9 136.289 229.27 135.949 228.77C135.629 228.25 135.179 227.83 134.599 227.51C134.019 227.17 133.349 226.87 132.589 226.61C131.829 226.35 131.009 226.08 130.129 225.8C128.369 225.24 127.089 224.54 126.289 223.7C125.509 222.84 125.119 221.74 125.119 220.4C125.119 219.26 125.379 218.26 125.899 217.4C126.439 216.54 127.199 215.87 128.179 215.39C129.179 214.89 130.359 214.64 131.719 214.64C133.059 214.64 134.219 214.89 135.199 215.39C136.199 215.89 136.979 216.58 137.539 217.46C138.099 218.32 138.379 219.32 138.379 220.46H135.739C135.739 219.88 135.589 219.31 135.289 218.75C134.989 218.19 134.529 217.73 133.909 217.37C133.309 216.99 132.549 216.8 131.629 216.8C130.869 216.78 130.189 216.91 129.589 217.19C129.009 217.45 128.549 217.83 128.209 218.33C127.889 218.83 127.729 219.44 127.729 220.16C127.729 220.84 127.869 221.39 128.149 221.81C128.449 222.23 128.869 222.59 129.409 222.89C129.969 223.17 130.619 223.43 131.359 223.67C132.099 223.91 132.919 224.18 133.819 224.48C134.839 224.82 135.739 225.24 136.519 225.74C137.319 226.22 137.939 226.84 138.379 227.6C138.839 228.36 139.069 229.33 139.069 230.51C139.069 231.51 138.799 232.46 138.259 233.36C137.739 234.24 136.959 234.96 135.919 235.52C134.879 236.08 133.569 236.36 131.989 236.36ZM142.847 236V215H145.367V224.51L154.127 215H157.307L149.507 223.37L157.427 236H154.367L147.707 225.32L145.367 227.81V236H142.847ZM175.319 236.36C173.779 236.36 172.439 236.08 171.299 235.52C170.159 234.96 169.279 234.18 168.659 233.18C168.039 232.18 167.729 231.02 167.729 229.7H170.369C170.369 230.52 170.559 231.28 170.939 231.98C171.319 232.66 171.869 233.21 172.589 233.63C173.329 234.03 174.239 234.23 175.319 234.23C176.259 234.23 177.059 234.08 177.719 233.78C178.399 233.46 178.909 233.03 179.249 232.49C179.609 231.95 179.789 231.34 179.789 230.66C179.789 229.9 179.619 229.27 179.279 228.77C178.959 228.25 178.509 227.83 177.929 227.51C177.349 227.17 176.679 226.87 175.919 226.61C175.159 226.35 174.339 226.08 173.459 225.8C171.699 225.24 170.419 224.54 169.619 223.7C168.839 222.84 168.449 221.74 168.449 220.4C168.449 219.26 168.709 218.26 169.229 217.4C169.769 216.54 170.529 215.87 171.509 215.39C172.509 214.89 173.689 214.64 175.049 214.64C176.389 214.64 177.549 214.89 178.529 215.39C179.529 215.89 180.309 216.58 180.869 217.46C181.429 218.32 181.709 219.32 181.709 220.46H179.069C179.069 219.88 178.919 219.31 178.619 218.75C178.319 218.19 177.859 217.73 177.239 217.37C176.639 216.99 175.879 216.8 174.959 216.8C174.199 216.78 173.519 216.91 172.919 217.19C172.339 217.45 171.879 217.83 171.539 218.33C171.219 218.83 171.059 219.44 171.059 220.16C171.059 220.84 171.199 221.39 171.479 221.81C171.779 222.23 172.199 222.59 172.739 222.89C173.299 223.17 173.949 223.43 174.689 223.67C175.429 223.91 176.249 224.18 177.149 224.48C178.169 224.82 179.069 225.24 179.849 225.74C180.649 226.22 181.269 226.84 181.709 227.6C182.169 228.36 182.399 229.33 182.399 230.51C182.399 231.51 182.129 232.46 181.589 233.36C181.069 234.24 180.289 234.96 179.249 235.52C178.209 236.08 176.899 236.36 175.319 236.36ZM184.797 236L192.537 215H195.207L202.917 236H200.217L193.857 218.15L187.437 236H184.797ZM188.337 230.6L189.057 228.56H198.567L199.287 230.6H188.337ZM206.128 236V215H209.068L216.208 229.79L223.288 215H226.258V236H223.738V219.53L217.138 233.24H215.248L208.648 219.65V236H206.128ZM235.774 236V217.07H229.504V215H244.564V217.07H238.294V236H235.774ZM244.065 236L251.805 215H254.475L262.185 236H259.485L253.125 218.15L246.705 236H244.065ZM247.605 230.6L248.325 228.56H257.835L258.555 230.6H247.605ZM265.396 236V215H267.916V233.99H277.696V236H265.396ZM281.333 236V215H294.323V217.07H283.853V224.39H293.423V226.43H283.853V233.93H294.323V236H281.333ZM303.304 236V217.07H297.034V215H312.094V217.07H305.824V236H303.304ZM315.347 236V215H328.337V217.07H317.867V224.39H327.437V226.43H317.867V233.93H328.337V236H315.347ZM332.427 236V215H339.207C340.847 215 342.187 215.28 343.227 215.84C344.267 216.38 345.037 217.11 345.537 218.03C346.037 218.95 346.287 219.99 346.287 221.15C346.287 222.27 346.027 223.3 345.507 224.24C345.007 225.18 344.227 225.93 343.167 226.49C342.107 227.05 340.747 227.33 339.087 227.33H334.947V236H332.427ZM343.527 236L338.907 226.61H341.727L346.497 236H343.527ZM334.947 225.35H339.027C340.627 225.35 341.797 224.96 342.537 224.18C343.297 223.4 343.677 222.4 343.677 221.18C343.677 219.94 343.307 218.96 342.567 218.24C341.847 217.5 340.657 217.13 338.997 217.13H334.947V225.35ZM348.977 236L356.717 215H359.387L367.097 236H364.397L358.037 218.15L351.617 236H348.977ZM352.517 230.6L353.237 228.56H362.747L363.467 230.6H352.517ZM370.308 236V215H377.058C378.738 215 380.118 215.28 381.198 215.84C382.278 216.4 383.078 217.16 383.598 218.12C384.118 219.06 384.378 220.13 384.378 221.33C384.378 222.51 384.118 223.58 383.598 224.54C383.078 225.5 382.278 226.26 381.198 226.82C380.138 227.38 378.758 227.66 377.058 227.66H372.828V236H370.308ZM372.828 225.53H377.028C378.788 225.53 380.018 225.15 380.718 224.39C381.438 223.61 381.798 222.59 381.798 221.33C381.798 220.01 381.438 218.98 380.718 218.24C380.018 217.48 378.788 217.1 377.028 217.1H372.828V225.53ZM387.828 236V215H390.348V236H387.828Z" fill="#0D3D2B"/>
<ellipse cx="666" cy="138" rx="138" ry="138" fill="#EFEAE3"/>
<path d="M666 0C742.215 4.1233e-05 804 61.7847 804 138C804 214.215 742.215 276 666 276C590.705 276 529.496 215.698 528.029 140.753C529.056 141.388 530.046 142.46 531 143.97C532.127 145.53 533.47 147.74 535.03 150.6L547.771 174C548.897 175.993 550.11 178.16 551.41 180.5C552.797 182.84 554.096 185.007 555.31 187H582.22V185.7C580.14 185.7 578.233 185.136 576.5 184.01C574.853 182.796 573.423 181.193 572.21 179.2L555.83 151.12C553.923 147.913 551.93 145.226 549.85 143.06C547.857 140.893 546.124 139.594 544.65 139.16C551.324 138.207 556.61 135.476 560.51 130.97C564.41 126.463 566.36 121.046 566.36 114.72C566.36 109.693 565.06 105.316 562.46 101.59C560.104 98.015 556.795 95.2019 552.535 93.1504L551.237 92.5498C547.073 90.6679 542.247 89.6588 536.759 89.5186C556.386 37.2203 606.846 0 666 0ZM535.774 92.2197C538.46 93.2578 540.769 95.0807 542.7 97.6904C545.907 101.937 547.51 107.57 547.51 114.59C547.51 121.523 545.82 127.157 542.44 131.49C539.147 135.824 534.683 137.99 529.05 137.99H528C528.001 121.947 530.739 106.542 535.774 92.2197Z" fill="#CE3732"/>
<path d="M635.07 188.82C624.67 188.82 615.527 186.74 607.64 182.58C599.84 178.333 593.73 172.44 589.31 164.9C584.977 157.273 582.81 148.39 582.81 138.25C582.81 128.11 584.977 119.27 589.31 111.73C593.73 104.103 599.84 98.21 607.64 94.05C615.527 89.8033 624.67 87.68 635.07 87.68C645.47 87.68 654.57 89.8033 662.37 94.05C670.257 98.21 676.367 104.103 680.7 111.73C685.12 119.27 687.33 128.11 687.33 138.25C687.33 148.39 685.12 157.273 680.7 164.9C676.367 172.44 670.257 178.333 662.37 182.58C654.57 186.74 645.47 188.82 635.07 188.82ZM635.07 186.74C639.577 186.74 643.693 185.57 647.42 183.23C651.147 180.89 654.353 177.597 657.04 173.35C659.64 169.103 661.633 163.99 663.02 158.01C664.493 152.03 665.23 145.4 665.23 138.12C665.23 130.84 664.493 124.21 663.02 118.23C661.633 112.163 659.64 107.007 657.04 102.76C654.353 98.5133 651.147 95.22 647.42 92.88C643.693 90.54 639.577 89.37 635.07 89.37C630.563 89.37 626.447 90.54 622.72 92.88C618.993 95.22 615.83 98.5133 613.23 102.76C610.543 107.007 608.463 112.163 606.99 118.23C605.603 124.21 604.91 130.84 604.91 138.12C604.91 145.4 605.603 152.03 606.99 158.01C608.463 163.99 610.543 169.103 613.23 173.35C615.83 177.597 618.993 180.89 622.72 183.23C626.447 185.57 630.563 186.74 635.07 186.74Z" fill="#EFEAE3"/>
</svg>
