<svg width="285" height="113" viewBox="0 0 285 113" fill="none" xmlns="http://www.w3.org/2000/svg">
<path d="M9.4 60.2768C8.70667 60.2768 8.13333 60.2501 7.68 60.1968C7.25333 60.1435 6.82667 60.0768 6.4 59.9968C5.97333 59.9168 5.45333 59.8501 4.84 59.7968C4.22667 59.7435 3.38667 59.7168 2.32 59.7168L0.92 49.3168H1.4C1.8 52.5968 2.70667 55.1301 4.12 56.9168C5.56 58.6768 7.4 59.5568 9.64 59.5568C11.2933 59.5568 12.64 59.0901 13.68 58.1568C14.72 57.2235 15.24 56.0101 15.24 54.5168C15.24 53.8768 15.12 53.2635 14.88 52.6768C14.6667 52.0901 14.2933 51.4635 13.76 50.7968C13.2267 50.1301 12.52 49.4101 11.64 48.6368C10.76 47.8368 9.66667 46.9435 8.36 45.9568L6.72 44.7168C4.72 43.1968 3.33333 41.8368 2.56 40.6368C1.78667 39.4368 1.4 38.1301 1.4 36.7168C1.4 34.3701 2.25333 32.5301 3.96 31.1968C5.69333 29.8368 7.97333 29.1568 10.8 29.1568C11.4933 29.1568 12.0533 29.1835 12.48 29.2368C12.9333 29.2901 13.36 29.3568 13.76 29.4368C14.1867 29.5168 14.68 29.5835 15.24 29.6368C15.8 29.6901 16.52 29.7168 17.4 29.7168L17.8 37.7968H17.4C17.0267 35.3168 16.2267 33.3568 15 31.9168C13.7733 30.4768 12.2933 29.7568 10.56 29.7568C9.33333 29.7568 8.34667 30.1168 7.6 30.8368C6.88 31.5568 6.52 32.5168 6.52 33.7168C6.52 34.7568 6.85333 35.7568 7.52 36.7168C8.21333 37.6501 9.4 38.7435 11.08 39.9968L12.8 41.2768C14.56 42.5568 15.9467 43.7435 16.96 44.8368C18 45.9035 18.7467 46.9435 19.2 47.9568C19.6533 48.9701 19.88 50.0501 19.88 51.1968C19.88 52.9568 19.44 54.5168 18.56 55.8768C17.68 57.2368 16.4533 58.3035 14.88 59.0768C13.3333 59.8235 11.5067 60.2235 9.4 60.2768ZM26.9341 59.7168L26.9741 59.3168H27.0141C27.9741 59.3168 28.7474 59.0235 29.3341 58.4368C29.9207 57.8501 30.2141 57.0768 30.2141 56.1168V30.2768H29.0541C27.7474 30.2768 26.4674 30.4901 25.2141 30.9168C23.9607 31.3168 22.8807 32.0635 21.9741 33.1568C21.0674 34.2235 20.4541 35.7701 20.1341 37.7968H19.7341L20.8541 29.7168H45.7741L46.9341 37.7968H46.5341C46.2141 35.7968 45.5874 34.2501 44.6541 33.1568C43.7474 32.0635 42.6541 31.3168 41.3741 30.9168C40.1207 30.4901 38.8141 30.2768 37.4541 30.2768H36.4141V56.1168C36.4141 57.0768 36.7074 57.8501 37.2941 58.4368C37.8807 59.0235 38.6541 59.3168 39.6141 59.3168L39.6541 59.7168H26.9341ZM63.4194 60.2768C60.2194 60.2768 57.406 59.6368 54.9794 58.3568C52.5794 57.0501 50.6994 55.2368 49.3394 52.9168C48.006 50.5701 47.3394 47.8368 47.3394 44.7168C47.3394 41.5968 48.006 38.8768 49.3394 36.5568C50.6994 34.2101 52.5794 32.3968 54.9794 31.1168C57.406 29.8101 60.2194 29.1568 63.4194 29.1568C66.6194 29.1568 69.4194 29.8101 71.8194 31.1168C74.246 32.3968 76.126 34.2101 77.4594 36.5568C78.8194 38.8768 79.4994 41.5968 79.4994 44.7168C79.4994 47.8368 78.8194 50.5701 77.4594 52.9168C76.126 55.2368 74.246 57.0501 71.8194 58.3568C69.4194 59.6368 66.6194 60.2768 63.4194 60.2768ZM63.4194 59.6368C64.806 59.6368 66.0727 59.2768 67.2194 58.5568C68.366 57.8368 69.3527 56.8235 70.1794 55.5168C70.9794 54.2101 71.5927 52.6368 72.0194 50.7968C72.4727 48.9568 72.6994 46.9168 72.6994 44.6768C72.6994 42.4368 72.4727 40.3968 72.0194 38.5568C71.5927 36.6901 70.9794 35.1035 70.1794 33.7968C69.3527 32.4901 68.366 31.4768 67.2194 30.7568C66.0727 30.0368 64.806 29.6768 63.4194 29.6768C62.0327 29.6768 60.766 30.0368 59.6194 30.7568C58.4727 31.4768 57.4994 32.4901 56.6994 33.7968C55.8727 35.1035 55.2327 36.6901 54.7794 38.5568C54.3527 40.3968 54.1394 42.4368 54.1394 44.6768C54.1394 46.9168 54.3527 48.9568 54.7794 50.7968C55.2327 52.6368 55.8727 54.2101 56.6994 55.5168C57.4994 56.8235 58.4727 57.8368 59.6194 58.5568C60.766 59.2768 62.0327 59.6368 63.4194 59.6368ZM80.4688 59.7168V59.3168H80.5088C81.4688 59.3168 82.2421 59.0235 82.8288 58.4368C83.4154 57.8501 83.7088 57.0768 83.7088 56.1168V33.3168C83.7088 32.3568 83.4154 31.5835 82.8288 30.9968C82.2421 30.4101 81.4688 30.1168 80.5088 30.1168H80.4688V29.7168H93.1488V30.1168H93.1088C92.1488 30.1168 91.3754 30.4101 90.7888 30.9968C90.2021 31.5835 89.9088 32.3568 89.9088 33.3168V56.1168C89.9088 57.0768 90.2021 57.8501 90.7888 58.4368C91.3754 59.0235 92.1488 59.3168 93.1088 59.3168H93.1488V59.7168H80.4688ZM102.564 60.2768C101.871 60.2768 101.297 60.2501 100.844 60.1968C100.417 60.1435 99.9907 60.0768 99.5641 59.9968C99.1374 59.9168 98.6174 59.8501 98.0041 59.7968C97.3907 59.7435 96.5507 59.7168 95.4841 59.7168L94.0841 49.3168H94.5641C94.9641 52.5968 95.8707 55.1301 97.2841 56.9168C98.7241 58.6768 100.564 59.5568 102.804 59.5568C104.457 59.5568 105.804 59.0901 106.844 58.1568C107.884 57.2235 108.404 56.0101 108.404 54.5168C108.404 53.8768 108.284 53.2635 108.044 52.6768C107.831 52.0901 107.457 51.4635 106.924 50.7968C106.391 50.1301 105.684 49.4101 104.804 48.6368C103.924 47.8368 102.831 46.9435 101.524 45.9568L99.8841 44.7168C97.8841 43.1968 96.4974 41.8368 95.7241 40.6368C94.9507 39.4368 94.5641 38.1301 94.5641 36.7168C94.5641 34.3701 95.4174 32.5301 97.1241 31.1968C98.8574 29.8368 101.137 29.1568 103.964 29.1568C104.657 29.1568 105.217 29.1835 105.644 29.2368C106.097 29.2901 106.524 29.3568 106.924 29.4368C107.351 29.5168 107.844 29.5835 108.404 29.6368C108.964 29.6901 109.684 29.7168 110.564 29.7168L110.964 37.7968H110.564C110.191 35.3168 109.391 33.3568 108.164 31.9168C106.937 30.4768 105.457 29.7568 103.724 29.7568C102.497 29.7568 101.511 30.1168 100.764 30.8368C100.044 31.5568 99.6841 32.5168 99.6841 33.7168C99.6841 34.7568 100.017 35.7568 100.684 36.7168C101.377 37.6501 102.564 38.7435 104.244 39.9968L105.964 41.2768C107.724 42.5568 109.111 43.7435 110.124 44.8368C111.164 45.9035 111.911 46.9435 112.364 47.9568C112.817 48.9701 113.044 50.0501 113.044 51.1968C113.044 52.9568 112.604 54.5168 111.724 55.8768C110.844 57.2368 109.617 58.3035 108.044 59.0768C106.497 59.8235 104.671 60.2235 102.564 60.2768ZM113.398 59.7168V59.3168H113.558C114.518 59.3168 115.292 59.0235 115.878 58.4368C116.465 57.8501 116.758 57.0768 116.758 56.1168V33.3168C116.758 32.3568 116.465 31.5835 115.878 30.9968C115.292 30.4101 114.518 30.1168 113.558 30.1168H113.398V29.7168H125.678V30.1168H125.518C124.558 30.1168 123.785 30.4101 123.198 30.9968C122.612 31.5835 122.318 32.3568 122.318 33.3168V43.2368L132.558 33.9568C133.652 32.9701 134.198 32.0901 134.198 31.3168C134.198 30.5168 133.585 30.1168 132.358 30.1168H132.318V29.7168H140.798V30.1168C140.265 30.1435 139.625 30.2635 138.878 30.4768C138.158 30.6901 137.438 30.9701 136.718 31.3168C135.998 31.6368 135.385 32.0235 134.878 32.4768L126.398 40.2768L140.598 57.3168C141.078 57.9035 141.598 58.3835 142.158 58.7568C142.718 59.1301 143.265 59.3168 143.798 59.3168V59.7168H131.958V59.3168C133.078 59.3168 133.772 59.1035 134.038 58.6768C134.332 58.2235 134.185 57.6501 133.598 56.9568L122.318 43.4368V56.1168C122.318 57.0768 122.612 57.8501 123.198 58.4368C123.785 59.0235 124.558 59.3168 125.518 59.3168H125.678V59.7168H113.398ZM150.859 59.7168V59.3168C151.819 59.3168 152.593 59.0235 153.179 58.4368C153.766 57.8501 154.059 57.0768 154.059 56.1168V33.3168C154.059 32.3568 153.766 31.5835 153.179 30.9968C152.593 30.4101 151.819 30.1168 150.859 30.1168V29.7168H164.219C166.139 29.7168 167.806 30.0501 169.219 30.7168C170.659 31.3568 171.766 32.2635 172.539 33.4368C173.339 34.5835 173.739 35.9301 173.739 37.4768C173.739 39.4235 173.139 41.0901 171.939 42.4768C170.739 43.8635 169.113 44.7035 167.059 44.9968C167.513 45.1301 168.046 45.5301 168.659 46.1968C169.299 46.8635 169.913 47.6901 170.499 48.6768L175.539 57.3168C175.913 57.9301 176.353 58.4235 176.859 58.7968C177.393 59.1435 177.979 59.3168 178.619 59.3168V59.7168H170.339C169.966 59.1035 169.566 58.4368 169.139 57.7168C168.739 56.9968 168.366 56.3301 168.019 55.7168L164.099 48.5168C163.619 47.6368 163.206 46.9568 162.859 46.4768C162.539 45.9701 162.206 45.6235 161.859 45.4368C161.539 45.2501 161.126 45.1568 160.619 45.1568H160.219V56.1168C160.219 57.0768 160.513 57.8501 161.099 58.4368C161.686 59.0235 162.459 59.3168 163.419 59.3168H163.499V59.7168H150.859ZM160.219 44.6368H162.259C163.993 44.6368 165.366 43.9701 166.379 42.6368C167.419 41.3035 167.939 39.5701 167.939 37.4368C167.939 35.2768 167.446 33.5435 166.459 32.2368C165.473 30.9035 164.166 30.2368 162.539 30.2368H160.219V44.6368Z" fill="#0D3D2B"/>
<ellipse cx="204.162" cy="43.8751" rx="43.1582" ry="43.1583" fill="#EFEAE3"/>
<path d="M204.158 0.716797C227.994 0.716797 247.316 20.0394 247.316 43.875C247.316 67.7106 227.994 87.0332 204.158 87.0332C180.706 87.033 161.623 68.3265 161.016 45.0205C161.335 45.2196 161.643 45.5537 161.939 46.0234C162.292 46.5113 162.712 47.2023 163.2 48.0967L167.185 55.415C167.537 56.0383 167.917 56.7156 168.323 57.4473C168.757 58.1791 169.164 58.8571 169.543 59.4805H177.959V59.0742C177.309 59.0742 176.712 58.8981 176.17 58.5459C175.655 58.1664 175.208 57.6644 174.828 57.041L169.705 48.2598C169.109 47.2569 168.485 46.4159 167.835 45.7383C167.212 45.0609 166.67 44.6541 166.209 44.5186C168.296 44.2204 169.949 43.3673 171.169 41.958C172.389 40.5487 172.998 38.8544 172.998 36.876C172.998 35.3039 172.591 33.935 171.778 32.7695C170.992 31.577 169.868 30.6554 168.404 30.0049C167.045 29.3638 165.456 29.0258 163.636 28.9912C169.699 12.4893 185.554 0.716988 204.158 0.716797ZM163.347 29.8057C164.224 30.124 164.974 30.7057 165.599 31.5498C166.601 32.8779 167.104 34.6395 167.104 36.835C167.104 39.0033 166.575 40.7649 165.518 42.1201C164.488 43.4753 163.092 44.1533 161.33 44.1533H161.004C161.003 44.0606 161 43.9678 161 43.875C161 38.9488 161.827 34.2156 163.347 29.8057Z" fill="#CE3732"/>
<path d="M194.486 60.0511C191.233 60.0511 188.374 59.4006 185.907 58.0996C183.468 56.7715 181.557 54.9284 180.175 52.5704C178.82 50.1852 178.142 47.407 178.142 44.2358C178.142 41.0646 178.82 38.3 180.175 35.9419C181.557 33.5567 183.468 31.7137 185.907 30.4127C188.374 29.0845 191.233 28.4205 194.486 28.4205C197.738 28.4205 200.584 29.0845 203.024 30.4127C205.49 31.7137 207.401 33.5567 208.756 35.9419C210.139 38.3 210.83 41.0646 210.83 44.2358C210.83 47.407 210.139 50.1852 208.756 52.5704C207.401 54.9284 205.49 56.7715 203.024 58.0996C200.584 59.4006 197.738 60.0511 194.486 60.0511ZM194.486 59.4006C195.895 59.4006 197.183 59.0347 198.348 58.3029C199.514 57.5711 200.517 56.5411 201.357 55.213C202.17 53.8849 202.793 52.2858 203.227 50.4156C203.688 48.5454 203.918 46.4719 203.918 44.1952C203.918 41.9184 203.688 39.8449 203.227 37.9747C202.793 36.0774 202.17 34.4647 201.357 33.1366C200.517 31.8085 199.514 30.7786 198.348 30.0467C197.183 29.3149 195.895 28.949 194.486 28.949C193.076 28.949 191.789 29.3149 190.623 30.0467C189.458 30.7786 188.469 31.8085 187.656 33.1366C186.815 34.4647 186.165 36.0774 185.704 37.9747C185.27 39.8449 185.054 41.9184 185.054 44.1952C185.054 46.4719 185.27 48.5454 185.704 50.4156C186.165 52.2858 186.815 53.8849 187.656 55.213C188.469 56.5411 189.458 57.5711 190.623 58.3029C191.789 59.0347 193.076 59.4006 194.486 59.4006Z" fill="#EFEAE3"/>
<path d="M1.155 87.0334V76.5334H7.545V77.5684H2.415V81.2584H6.78V82.2784H2.415V87.0334H1.155ZM9.24094 87.0334V76.5334H10.5009V87.0334H9.24094ZM12.8152 87.0334V76.5334H14.0752V86.0284H18.9652V87.0334H12.8152ZM24.2425 87.2134C23.2825 87.2134 22.4375 86.9884 21.7075 86.5384C20.9775 86.0784 20.4075 85.4434 19.9975 84.6334C19.5875 83.8134 19.3825 82.8634 19.3825 81.7834C19.3825 80.7134 19.5875 79.7734 19.9975 78.9634C20.4075 78.1434 20.9775 77.5034 21.7075 77.0434C22.4375 76.5834 23.2825 76.3534 24.2425 76.3534C25.2225 76.3534 26.0775 76.5834 26.8075 77.0434C27.5375 77.5034 28.1025 78.1434 28.5025 78.9634C28.9025 79.7734 29.1025 80.7134 29.1025 81.7834C29.1025 82.8634 28.9025 83.8134 28.5025 84.6334C28.1025 85.4434 27.5375 86.0784 26.8075 86.5384C26.0775 86.9884 25.2225 87.2134 24.2425 87.2134ZM24.2425 86.1034C24.9625 86.1034 25.5875 85.9334 26.1175 85.5934C26.6575 85.2434 27.0725 84.7484 27.3625 84.1084C27.6625 83.4584 27.8125 82.6834 27.8125 81.7834C27.8125 80.8834 27.6625 80.1134 27.3625 79.4734C27.0725 78.8234 26.6575 78.3284 26.1175 77.9884C25.5875 77.6484 24.9625 77.4784 24.2425 77.4784C23.5325 77.4784 22.9075 77.6484 22.3675 77.9884C21.8375 78.3284 21.4225 78.8234 21.1225 79.4734C20.8225 80.1134 20.6725 80.8834 20.6725 81.7834C20.6725 82.6834 20.8225 83.4584 21.1225 84.1084C21.4225 84.7484 21.8375 85.2434 22.3675 85.5934C22.9075 85.9334 23.5325 86.1034 24.2425 86.1034ZM34.3539 87.2134C33.5839 87.2134 32.9139 87.0734 32.3439 86.7934C31.7739 86.5134 31.3339 86.1234 31.0239 85.6234C30.7139 85.1234 30.5589 84.5434 30.5589 83.8834H31.8789C31.8789 84.2934 31.9739 84.6734 32.1639 85.0234C32.3539 85.3634 32.6289 85.6384 32.9889 85.8484C33.3589 86.0484 33.8139 86.1484 34.3539 86.1484C34.8239 86.1484 35.2239 86.0734 35.5539 85.9234C35.8939 85.7634 36.1489 85.5484 36.3189 85.2784C36.4989 85.0084 36.5889 84.7034 36.5889 84.3634C36.5889 83.9834 36.5039 83.6684 36.3339 83.4184C36.1739 83.1584 35.9489 82.9484 35.6589 82.7884C35.3689 82.6184 35.0339 82.4684 34.6539 82.3384C34.2739 82.2084 33.8639 82.0734 33.4239 81.9334C32.5439 81.6534 31.9039 81.3034 31.5039 80.8834C31.1139 80.4534 30.9189 79.9034 30.9189 79.2334C30.9189 78.6634 31.0489 78.1634 31.3089 77.7334C31.5789 77.3034 31.9589 76.9684 32.4489 76.7284C32.9489 76.4784 33.5389 76.3534 34.2189 76.3534C34.8889 76.3534 35.4689 76.4784 35.9589 76.7284C36.4589 76.9784 36.8489 77.3234 37.1289 77.7634C37.4089 78.1934 37.5489 78.6934 37.5489 79.2634H36.2289C36.2289 78.9734 36.1539 78.6884 36.0039 78.4084C35.8539 78.1284 35.6239 77.8984 35.3139 77.7184C35.0139 77.5284 34.6339 77.4334 34.1739 77.4334C33.7939 77.4234 33.4539 77.4884 33.1539 77.6284C32.8639 77.7584 32.6339 77.9484 32.4639 78.1984C32.3039 78.4484 32.2239 78.7534 32.2239 79.1134C32.2239 79.4534 32.2939 79.7284 32.4339 79.9384C32.5839 80.1484 32.7939 80.3284 33.0639 80.4784C33.3439 80.6184 33.6689 80.7484 34.0389 80.8684C34.4089 80.9884 34.8189 81.1234 35.2689 81.2734C35.7789 81.4434 36.2289 81.6534 36.6189 81.9034C37.0189 82.1434 37.3289 82.4534 37.5489 82.8334C37.7789 83.2134 37.8939 83.6984 37.8939 84.2884C37.8939 84.7884 37.7589 85.2634 37.4889 85.7134C37.2289 86.1534 36.8389 86.5134 36.3189 86.7934C35.7989 87.0734 35.1439 87.2134 34.3539 87.2134ZM44.2229 87.2134C43.2629 87.2134 42.4179 86.9884 41.6879 86.5384C40.9579 86.0784 40.3879 85.4434 39.9779 84.6334C39.5679 83.8134 39.3629 82.8634 39.3629 81.7834C39.3629 80.7134 39.5679 79.7734 39.9779 78.9634C40.3879 78.1434 40.9579 77.5034 41.6879 77.0434C42.4179 76.5834 43.2629 76.3534 44.2229 76.3534C45.2029 76.3534 46.0579 76.5834 46.7879 77.0434C47.5179 77.5034 48.0829 78.1434 48.4829 78.9634C48.8829 79.7734 49.0829 80.7134 49.0829 81.7834C49.0829 82.8634 48.8829 83.8134 48.4829 84.6334C48.0829 85.4434 47.5179 86.0784 46.7879 86.5384C46.0579 86.9884 45.2029 87.2134 44.2229 87.2134ZM44.2229 86.1034C44.9429 86.1034 45.5679 85.9334 46.0979 85.5934C46.6379 85.2434 47.0529 84.7484 47.3429 84.1084C47.6429 83.4584 47.7929 82.6834 47.7929 81.7834C47.7929 80.8834 47.6429 80.1134 47.3429 79.4734C47.0529 78.8234 46.6379 78.3284 46.0979 77.9884C45.5679 77.6484 44.9429 77.4784 44.2229 77.4784C43.5129 77.4784 42.8879 77.6484 42.3479 77.9884C41.8179 78.3284 41.4029 78.8234 41.1029 79.4734C40.8029 80.1134 40.6529 80.8834 40.6529 81.7834C40.6529 82.6834 40.8029 83.4584 41.1029 84.1084C41.4029 84.7484 41.8179 85.2434 42.3479 85.5934C42.8879 85.9334 43.5129 86.1034 44.2229 86.1034ZM50.9743 87.0334V76.5334H57.3643V77.5684H52.2343V81.2584H56.5993V82.2784H52.2343V87.0334H50.9743ZM59.0603 87.0334V76.5334H60.3203V87.0334H59.0603ZM65.9945 87.2134C65.2245 87.2134 64.5545 87.0734 63.9845 86.7934C63.4145 86.5134 62.9745 86.1234 62.6645 85.6234C62.3545 85.1234 62.1995 84.5434 62.1995 83.8834H63.5195C63.5195 84.2934 63.6145 84.6734 63.8045 85.0234C63.9945 85.3634 64.2695 85.6384 64.6295 85.8484C64.9995 86.0484 65.4545 86.1484 65.9945 86.1484C66.4645 86.1484 66.8645 86.0734 67.1945 85.9234C67.5345 85.7634 67.7895 85.5484 67.9595 85.2784C68.1395 85.0084 68.2295 84.7034 68.2295 84.3634C68.2295 83.9834 68.1445 83.6684 67.9745 83.4184C67.8145 83.1584 67.5895 82.9484 67.2995 82.7884C67.0095 82.6184 66.6745 82.4684 66.2945 82.3384C65.9145 82.2084 65.5045 82.0734 65.0645 81.9334C64.1845 81.6534 63.5445 81.3034 63.1445 80.8834C62.7545 80.4534 62.5595 79.9034 62.5595 79.2334C62.5595 78.6634 62.6895 78.1634 62.9495 77.7334C63.2195 77.3034 63.5995 76.9684 64.0895 76.7284C64.5895 76.4784 65.1795 76.3534 65.8595 76.3534C66.5295 76.3534 67.1095 76.4784 67.5995 76.7284C68.0995 76.9784 68.4895 77.3234 68.7695 77.7634C69.0495 78.1934 69.1895 78.6934 69.1895 79.2634H67.8695C67.8695 78.9734 67.7945 78.6884 67.6445 78.4084C67.4945 78.1284 67.2645 77.8984 66.9545 77.7184C66.6545 77.5284 66.2745 77.4334 65.8145 77.4334C65.4345 77.4234 65.0945 77.4884 64.7945 77.6284C64.5045 77.7584 64.2745 77.9484 64.1045 78.1984C63.9445 78.4484 63.8645 78.7534 63.8645 79.1134C63.8645 79.4534 63.9345 79.7284 64.0745 79.9384C64.2245 80.1484 64.4345 80.3284 64.7045 80.4784C64.9845 80.6184 65.3095 80.7484 65.6795 80.8684C66.0495 80.9884 66.4595 81.1234 66.9095 81.2734C67.4195 81.4434 67.8695 81.6534 68.2595 81.9034C68.6595 82.1434 68.9695 82.4534 69.1895 82.8334C69.4195 83.2134 69.5345 83.6984 69.5345 84.2884C69.5345 84.7884 69.3995 85.2634 69.1295 85.7134C68.8695 86.1534 68.4795 86.5134 67.9595 86.7934C67.4395 87.0734 66.7845 87.2134 65.9945 87.2134ZM71.4236 87.0334V76.5334H72.6836V81.2884L77.0636 76.5334H78.6536L74.7536 80.7184L78.7136 87.0334H77.1836L73.8536 81.6934L72.6836 82.9384V87.0334H71.4236ZM4.515 107.213C3.745 107.213 3.075 107.073 2.505 106.793C1.935 106.513 1.495 106.123 1.185 105.623C0.875 105.123 0.72 104.543 0.72 103.883H2.04C2.04 104.293 2.135 104.673 2.325 105.023C2.515 105.363 2.79 105.638 3.15 105.848C3.52 106.048 3.975 106.148 4.515 106.148C4.985 106.148 5.385 106.073 5.715 105.923C6.055 105.763 6.31 105.548 6.48 105.278C6.66 105.008 6.75 104.703 6.75 104.363C6.75 103.983 6.665 103.668 6.495 103.418C6.335 103.158 6.11 102.948 5.82 102.788C5.53 102.618 5.195 102.468 4.815 102.338C4.435 102.208 4.025 102.073 3.585 101.933C2.705 101.653 2.065 101.303 1.665 100.883C1.275 100.453 1.08 99.9034 1.08 99.2334C1.08 98.6634 1.21 98.1634 1.47 97.7334C1.74 97.3034 2.12 96.9684 2.61 96.7284C3.11 96.4784 3.7 96.3534 4.38 96.3534C5.05 96.3534 5.63 96.4784 6.12 96.7284C6.62 96.9784 7.01 97.3234 7.29 97.7634C7.57 98.1934 7.71 98.6934 7.71 99.2634H6.39C6.39 98.9734 6.315 98.6884 6.165 98.4084C6.015 98.1284 5.785 97.8984 5.475 97.7184C5.175 97.5284 4.795 97.4334 4.335 97.4334C3.955 97.4234 3.615 97.4884 3.315 97.6284C3.025 97.7584 2.795 97.9484 2.625 98.1984C2.465 98.4484 2.385 98.7534 2.385 99.1134C2.385 99.4534 2.455 99.7284 2.595 99.9384C2.745 100.148 2.955 100.328 3.225 100.478C3.505 100.618 3.83 100.748 4.2 100.868C4.57 100.988 4.98 101.123 5.43 101.273C5.94 101.443 6.39 101.653 6.78 101.903C7.18 102.143 7.49 102.453 7.71 102.833C7.94 103.213 8.055 103.698 8.055 104.288C8.055 104.788 7.92 105.263 7.65 105.713C7.39 106.153 7 106.513 6.48 106.793C5.96 107.073 5.305 107.213 4.515 107.213ZM9.25406 107.033L13.1241 96.5334H14.4591L18.3141 107.033H16.9641L13.7841 98.1084L10.5741 107.033H9.25406ZM11.0241 104.333L11.3841 103.313H16.1391L16.4991 104.333H11.0241ZM19.9196 107.033V96.5334H21.3896L24.9596 103.928L28.4996 96.5334H29.9846V107.033H28.7246V98.7984L25.4246 105.653H24.4796L21.1796 98.8584V107.033H19.9196ZM34.7426 107.033V97.5684H31.6076V96.5334H39.1376V97.5684H36.0026V107.033H34.7426ZM38.8879 107.033L42.7579 96.5334H44.0929L47.9479 107.033H46.5979L43.4179 98.1084L40.2079 107.033H38.8879ZM40.6579 104.333L41.0179 103.313H45.7729L46.1329 104.333H40.6579ZM49.5534 107.033V96.5334H50.8134V106.028H55.7034V107.033H49.5534ZM57.5222 107.033V96.5334H64.0172V97.5684H58.7822V101.228H63.5672V102.248H58.7822V105.998H64.0172V107.033H57.5222ZM68.5072 107.033V97.5684H65.3722V96.5334H72.9022V97.5684H69.7672V107.033H68.5072ZM74.529 107.033V96.5334H81.024V97.5684H75.789V101.228H80.574V102.248H75.789V105.998H81.024V107.033H74.529ZM83.0691 107.033V96.5334H86.4591C87.2791 96.5334 87.9491 96.6734 88.4691 96.9534C88.9891 97.2234 89.3741 97.5884 89.6241 98.0484C89.8741 98.5084 89.9991 99.0284 89.9991 99.6084C89.9991 100.168 89.8691 100.683 89.6091 101.153C89.3591 101.623 88.9691 101.998 88.4391 102.278C87.9091 102.558 87.2291 102.698 86.3991 102.698H84.3291V107.033H83.0691ZM88.6191 107.033L86.3091 102.338H87.7191L90.1041 107.033H88.6191ZM84.3291 101.708H86.3691C87.1691 101.708 87.7541 101.513 88.1241 101.123C88.5041 100.733 88.6941 100.233 88.6941 99.6234C88.6941 99.0034 88.5091 98.5134 88.1391 98.1534C87.7791 97.7834 87.1841 97.5984 86.3541 97.5984H84.3291V101.708ZM91.3439 107.033L95.2139 96.5334H96.5489L100.404 107.033H99.0539L95.8739 98.1084L92.6639 107.033H91.3439ZM93.1139 104.333L93.4739 103.313H98.2289L98.5889 104.333H93.1139ZM102.009 107.033V96.5334H105.384C106.224 96.5334 106.914 96.6734 107.454 96.9534C107.994 97.2334 108.394 97.6134 108.654 98.0934C108.914 98.5634 109.044 99.0984 109.044 99.6984C109.044 100.288 108.914 100.823 108.654 101.303C108.394 101.783 107.994 102.163 107.454 102.443C106.924 102.723 106.234 102.863 105.384 102.863H103.269V107.033H102.009ZM103.269 101.798H105.369C106.249 101.798 106.864 101.608 107.214 101.228C107.574 100.838 107.754 100.328 107.754 99.6984C107.754 99.0384 107.574 98.5234 107.214 98.1534C106.864 97.7734 106.249 97.5834 105.369 97.5834H103.269V101.798ZM110.769 107.033V96.5334H112.029V107.033H110.769Z" fill="#0D3D2B"/>
</svg>
