<svg width="212" height="231" viewBox="0 0 212 231" fill="none" xmlns="http://www.w3.org/2000/svg">
<rect width="212" height="231" fill="#FDFDFC"/>
<rect x="46.6797" y="111.45" width="91.5134" height="52.947" fill="#0D3D2B"/>
<path d="M126.729 28.1618L112.557 20.6865L111.408 21.5618L120.41 33.9624L113.645 40.1708L109.165 41.1767C106.341 41.2988 103.327 41.3522 100.116 41.3199L100.094 42.6255C102.963 42.6544 105.679 42.6162 108.247 42.5214L109.339 42.4774C109.981 42.4493 110.613 42.4173 111.235 42.3823L98.2035 54.3426L120.635 52.7906L119.01 58.9998L120.429 59.552L128.01 52.2806L130.159 52.1319L133.884 65.2646L144.847 51.1158L155.166 50.4021L155.427 49.1543L148.324 46.6277L152.215 41.6064L141.493 35.9502C142.273 35.5311 144.94 33.646 145.404 33.284L142.573 33.6743L140.084 34.2331L143.91 12.3934L126.729 28.1618ZM134.592 61.8808L131.794 52.0189L133.433 51.9054L137.901 58.5577L138.703 56.5719L135.226 51.7813L142.825 51.2556L134.592 61.8808ZM122.336 55.5623L122.978 52.7828L125.726 52.4387L122.336 55.5623ZM121.076 51.328L105.903 51.9971L115.355 42.1143C119.098 41.8438 120.674 41.569 123.695 41.0956L121.076 51.328ZM127.952 44.3536L129.279 49.031L127.199 51.0262L122.972 51.2069L125.417 40.8611L127.952 44.3536ZM129.794 50.8467L129.482 50.8681L129.732 50.6288L129.794 50.8467ZM132.527 50.6573L131.43 50.7332L131.043 49.3712L131.368 49.0597L132.527 50.6573ZM146.535 47.2106L143.834 50.0491L134.32 50.5336L132.478 47.9949L136.717 43.9286L146.535 47.2106ZM154.401 49.5786L145.731 50.0428L147.62 47.6423L154.401 49.5786ZM135.171 43.3789L131.608 46.7969L129.482 43.8677L128.689 41.0734L135.171 43.3789ZM151.123 41.61L147.345 46.3372L137.804 42.8864L138.722 42.0055L139.625 36.8534C139.739 36.8036 140.157 36.6155 140.266 36.566L151.123 41.61ZM137.178 41.4545L136.258 42.3363L129.622 39.9761C130.697 39.7349 131.711 39.4854 132.663 39.2296C134.654 38.6943 136.384 38.1318 137.857 37.5731L137.178 41.4545ZM124.196 39.1792L124.058 39.7059C122.254 40.0011 120.314 40.268 118.233 40.4961L124.182 39.1597L124.196 39.1792ZM123.336 37.9947L116.973 39.7295L121.294 35.3232L123.336 37.9947ZM138.047 36.0462C136.48 36.6852 134.523 37.3532 132.149 37.9913C130.907 38.3249 129.555 38.649 128.089 38.9566L127.909 38.3229L138.047 36.0462ZM126.383 38.8246L126.109 38.7268L126.341 38.6751L126.383 38.8246ZM136.712 34.9909L124.955 37.6309L122.374 34.2313L127.019 29.8779L136.712 34.9909ZM138.425 34.3317L128.1 28.8851L140.74 16.1042L138.425 34.3317ZM125.648 29.1547L121.54 32.9251L114.556 23.3033L125.648 29.1547Z" fill="#CE3732"/>
<path d="M118.462 32.1203L121.528 16.3938L122.931 16.0476L126.943 30.8362L136.021 29.4615L139.615 26.603C141.481 24.4802 143.413 22.1658 145.401 19.645L146.433 20.4462C144.656 22.6989 142.922 24.7908 141.238 26.7314L140.519 27.5541C140.094 28.0363 139.673 28.5086 139.255 28.9716L156.744 26.3229L141.466 42.8209L147.322 45.4497L146.862 46.9006L136.444 48.2448L134.98 49.8252L142.873 60.9634L124.977 60.6282L117.949 68.2175L116.813 67.6386L119.3 60.5215L112.949 60.4031L115.268 48.5045C114.453 48.8489 111.311 49.744 110.739 49.8783L112.818 47.9183L114.815 46.3299L95.4048 35.6121L118.462 32.1203ZM139.793 59.3929L133.867 51.0282L132.75 52.2334L135.129 59.8856L133.08 59.2648L131.529 53.5522L126.354 59.1411L139.793 59.3929ZM142.558 45.8839L139.991 44.6404L137.999 46.5652L142.558 45.8839ZM140.051 42.2468L150.088 30.8489L136.463 32.012C133.905 34.7575 132.702 35.8133 130.439 37.8687L140.051 42.2468ZM130.306 43.2278L133.117 47.195L135.976 46.8262L138.767 43.648L129.176 39.0628L130.306 43.2278ZM134.208 48.7351L134.42 48.5058L134.077 48.55L134.208 48.7351ZM132.347 50.7449L133.094 49.9378L132.275 48.7828L131.829 48.8402L132.347 50.7449ZM120.877 59.4932L124.781 59.1703L131.125 52.064L130.304 49.0369L124.477 49.7886L120.877 59.4932ZM117.787 67.1053L123.587 60.6437L120.532 60.6093L117.787 67.1053ZM125.019 48.2396L129.916 47.608L128.968 44.1147L127.289 41.7449L125.019 48.2396ZM113.637 59.5541L119.688 59.5764L122.984 49.9814L121.722 50.1439L117.143 47.6161C117.033 47.6732 116.624 47.8811 116.517 47.9351L113.637 59.5541ZM122.262 48.5953L123.525 48.4322L125.849 41.783C124.987 42.4696 124.157 43.1024 123.361 43.6832C121.695 44.8988 120.172 45.893 118.812 46.6904L122.262 48.5953ZM128.632 37.0571L129.128 37.2804C130.49 36.0605 131.915 34.7163 133.397 33.2386L128.625 37.0341L128.632 37.0571ZM128.248 35.6446L133.591 31.7764L127.449 32.3784L128.248 35.6446ZM117.505 45.8802C118.985 45.0607 120.733 43.9551 122.719 42.5063C123.757 41.7488 124.858 40.8987 126.017 39.9497L125.636 39.4121L117.505 45.8802ZM126.984 38.5383L127.079 38.2637L126.894 38.4116L126.984 38.5383ZM117.52 44.1784L126.95 36.6773L125.921 32.5349L119.617 33.4221L117.52 44.1784ZM115.932 45.0997L118.165 33.6418L100.283 35.4708L115.932 45.0997ZM119.913 31.901L125.427 31.066L122.313 19.5917L119.913 31.901Z" fill="#CE3732"/>
<path d="M63.6777 157.862V171.261H97.9941V174.529L83.832 174.934L63.6777 182.371V218H138.195V157.862H63.6777ZM63.6768 173.222L63.6729 173.223V182.373L63.6777 182.371V171.261H63.6768V173.222Z" fill="#0D3D2B"/>
<path d="M46.6816 127.792H138.195V83.5674C111.015 81.8835 89.4912 59.3066 89.4912 31.7021C89.4912 30.0493 89.5698 28.4142 89.7207 26.8008H46.6816V127.792ZM96.3564 78.6035L66.4512 94.292L55.8291 76.4795L96.3564 78.6035Z" fill="#0D3D2B"/>
<path d="M71 91C74.87 91 78 87.87 78 84C78 80.13 74.87 77 71 77C67.13 77 64 80.13 64 84C64 87.87 67.13 91 71 91Z" fill="#0D3D2B"/>
</svg>
