<svg width="212" height="231" viewBox="0 0 212 231" fill="none" xmlns="http://www.w3.org/2000/svg">
<rect width="212" height="231" fill="#FDFDFC"/>
<path d="M53.7686 119.661H0.000203848V150.387H53.7686V119.661Z" fill="#0D3D2B"/>
<path d="M69.3594 52.8813V129.427H0V52.8813H69.3594ZM50.6582 101.559L58.709 88.0581H28.6113L50.6582 101.559Z" fill="#0D3D2B"/>
<path d="M73.5966 149.275L81.8413 144.926L82.5099 145.436L77.2731 152.65L81.2084 156.262L83.8147 156.847C85.4574 156.918 87.2111 156.949 89.0788 156.931L89.092 157.69C87.423 157.707 85.8426 157.685 84.3487 157.63L83.7136 157.604C83.3403 157.588 82.9725 157.569 82.6103 157.549L90.1916 164.507L77.1418 163.604L78.0871 167.216L77.262 167.538L72.8516 163.307L71.6015 163.221L69.4343 170.861L63.0565 162.63L57.0535 162.214L56.9014 161.489L61.0337 160.019L58.7699 157.097L65.0075 153.807C64.5539 153.563 63.0022 152.466 62.7323 152.255L64.3791 152.483L65.8273 152.808L63.6017 140.102L73.5966 149.275ZM69.0221 168.893L70.65 163.155L69.6967 163.089L67.0974 166.959L66.6308 165.804L68.6534 163.017L64.2327 162.711L69.0221 168.893ZM76.1524 165.217L75.7791 163.6L74.1802 163.399L76.1524 165.217ZM76.8854 162.753L85.7122 163.142L80.2138 157.393C78.0364 157.235 77.119 157.075 75.362 156.8L76.8854 162.753ZM72.8854 158.696L72.1134 161.417L73.3236 162.578L75.7821 162.683L74.3603 156.664L72.8854 158.696ZM71.8137 162.473L71.995 162.486L71.8498 162.346L71.8137 162.473ZM70.2237 162.363L70.8622 162.407L71.0868 161.615L70.8981 161.433L70.2237 162.363ZM62.0748 160.358L63.6457 162.009L69.1805 162.291L70.2523 160.814L67.7859 158.448L62.0748 160.358ZM57.4985 161.735L62.5422 162.005L61.4434 160.609L57.4985 161.735ZM68.6854 158.128L70.7583 160.117L71.9953 158.413L72.4564 156.787L68.6854 158.128ZM59.4057 157.099L61.6035 159.85L67.1536 157.842L66.6196 157.329L66.0941 154.332C66.0282 154.303 65.7848 154.194 65.7212 154.165L59.4057 157.099ZM67.5182 157.009L68.0532 157.522L71.9139 156.149C71.2881 156.008 70.6985 155.863 70.1449 155.714C68.9861 155.403 67.9801 155.076 67.1227 154.751L67.5182 157.009ZM75.0705 155.685L75.1504 155.992C76.1999 156.163 77.3289 156.319 78.5395 156.451L75.0785 155.674L75.0705 155.685ZM75.5706 154.996L79.2725 156.005L76.7588 153.442L75.5706 154.996ZM67.0126 153.862C67.924 154.234 69.0628 154.623 70.4438 154.994C71.1659 155.188 71.9527 155.377 72.8057 155.556L72.9104 155.187L67.0126 153.862ZM73.798 155.479L73.9574 155.422L73.8226 155.392L73.798 155.479ZM67.7894 153.248L74.6289 154.784L76.1303 152.807L73.4283 150.274L67.7894 153.248ZM66.7924 152.865L72.799 149.696L65.4456 142.261L66.7924 152.865ZM74.2256 149.853L76.6156 152.047L80.6785 146.449L74.2256 149.853Z" fill="#CE3732"/>
<path d="M78.4067 151.578L76.6229 142.429L75.807 142.228L73.4726 150.831L68.1913 150.031L66.1009 148.368C65.0153 147.133 63.8912 145.787 62.7344 144.32L62.1345 144.787C63.1683 146.097 64.1768 147.314 65.1566 148.443L65.5749 148.922C65.8218 149.202 66.067 149.477 66.31 149.746L56.1357 148.205L65.0236 157.804L61.6173 159.333L61.8846 160.177L67.9455 160.959L68.7969 161.879L64.2056 168.359L74.6166 168.164L78.705 172.579L79.3658 172.242L77.919 168.102L81.614 168.033L80.2647 161.11C80.7391 161.311 82.5665 161.831 82.8998 161.91L81.69 160.769L80.5285 159.845L91.8203 153.61L78.4067 151.578ZM65.9973 167.445L69.4449 162.579L70.0942 163.28L68.7102 167.732L69.9027 167.37L70.8048 164.047L73.8156 167.299L65.9973 167.445ZM64.3883 159.586L65.8819 158.862L67.0406 159.982L64.3883 159.586ZM65.8472 157.47L60.0079 150.839L67.9345 151.515C69.4227 153.113 70.1226 153.727 71.4391 154.923L65.8472 157.47ZM71.5161 158.04L69.8809 160.348L68.2179 160.134L66.594 158.285L72.1736 155.617L71.5161 158.04ZM69.2462 161.244L69.1228 161.111L69.3223 161.137L69.2462 161.244ZM70.3292 162.414L69.8944 161.944L70.3706 161.272L70.6301 161.306L70.3292 162.414ZM77.0019 167.503L74.7304 167.316L71.0395 163.181L71.5176 161.42L74.907 161.857L77.0019 167.503ZM78.7991 171.932L75.4254 168.173L77.2023 168.153L78.7991 171.932ZM74.5919 160.956L71.7431 160.589L72.2946 158.556L73.2715 157.178L74.5919 160.956ZM81.2136 167.539L77.6932 167.552L75.7758 161.97L76.5099 162.064L79.1739 160.593C79.2379 160.627 79.4757 160.748 79.5381 160.779L81.2136 167.539ZM76.196 161.163L75.4609 161.068L74.109 157.2C74.6108 157.599 75.0935 157.967 75.5567 158.305C76.526 159.013 77.4118 159.591 78.2028 160.055L76.196 161.163ZM72.4903 154.45L72.2014 154.58C71.4094 153.871 70.5805 153.089 69.7178 152.229L72.4941 154.437L72.4903 154.45ZM72.7133 153.629L69.6054 151.378L73.1786 151.728L72.7133 153.629ZM78.9636 159.584C78.1025 159.107 77.0856 158.464 75.9303 157.621C75.3262 157.18 74.6859 156.685 74.0116 156.133L74.233 155.821L78.9636 159.584ZM73.449 155.312L73.3933 155.152L73.5013 155.238L73.449 155.312ZM78.9547 158.593L73.4688 154.229L74.0675 151.82L77.7347 152.336L78.9547 158.593ZM79.8786 159.129L78.5793 152.463L88.9824 153.528L79.8786 159.129ZM77.5624 151.451L74.3549 150.965L76.1665 144.289L77.5624 151.451Z" fill="#CE3732"/>
<path d="M43.5078 147.826V177.668H0.118164V147.826H43.5078Z" fill="#0D3D2B"/>
<path d="M158.231 101.858H212V132.584H158.231V101.858Z" fill="#0D3D2B"/>
<path d="M142.641 35.0781V111.624H212V35.0781H142.641ZM161.342 83.7559L153.291 70.2549H183.389L161.342 83.7559Z" fill="#0D3D2B"/>
<path d="M138.403 131.472L130.159 127.123L129.49 127.632L134.727 134.847L130.792 138.459L128.185 139.044C126.543 139.115 124.789 139.146 122.921 139.127L122.908 139.887C124.577 139.904 126.157 139.881 127.651 139.826L128.286 139.801C128.66 139.784 129.027 139.766 129.39 139.745L121.808 146.704L134.858 145.801L133.913 149.413L134.738 149.734L139.148 145.504L140.398 145.418L142.566 153.058L148.944 144.826L154.946 144.411L155.099 143.685L150.966 142.215L153.23 139.294L146.993 136.003C147.446 135.76 148.998 134.663 149.268 134.452L147.621 134.679L146.173 135.004L148.398 122.298L138.403 131.472ZM142.978 151.089L141.35 145.352L142.303 145.286L144.903 149.156L145.369 148.001L143.347 145.214L147.767 144.908L142.978 151.089ZM135.848 147.413L136.221 145.796L137.82 145.596L135.848 147.413ZM135.115 144.95L126.288 145.339L131.786 139.59C133.964 139.432 134.881 139.272 136.638 138.997L135.115 144.95ZM139.115 140.892L139.887 143.614L138.676 144.774L136.218 144.879L137.64 138.86L139.115 140.892ZM140.186 144.67L140.005 144.682L140.15 144.543L140.186 144.67ZM141.776 144.56L141.138 144.604L140.913 143.811L141.102 143.63L141.776 144.56ZM149.925 142.554L148.354 144.206L142.819 144.488L141.748 143.011L144.214 140.645L149.925 142.554ZM154.502 143.932L149.458 144.202L150.557 142.806L154.502 143.932ZM143.315 140.325L141.242 142.314L140.005 140.61L139.544 138.984L143.315 140.325ZM152.594 139.296L150.396 142.046L144.846 140.039L145.38 139.526L145.906 136.529C145.972 136.5 146.215 136.39 146.279 136.362L152.594 139.296ZM144.482 139.206L143.947 139.719L140.086 138.346C140.712 138.205 141.301 138.06 141.855 137.911C143.014 137.6 144.02 137.273 144.877 136.948L144.482 139.206ZM136.93 137.882L136.85 138.188C135.8 138.36 134.671 138.515 133.461 138.648L136.921 137.871L136.93 137.882ZM136.429 137.193L132.727 138.202L135.241 135.639L136.429 137.193ZM144.987 136.059C144.076 136.431 142.937 136.82 141.556 137.191C140.834 137.385 140.047 137.573 139.194 137.752L139.09 137.384L144.987 136.059ZM138.202 137.676L138.043 137.619L138.177 137.589L138.202 137.676ZM144.211 135.445L137.371 136.981L135.87 135.003L138.572 132.471L144.211 135.445ZM145.208 135.062L139.201 131.893L146.554 124.457L145.208 135.062ZM137.774 132.05L135.384 134.243L131.321 128.646L137.774 132.05Z" fill="#CE3732"/>
<path d="M130.93 148.487L134.118 132.134L135.576 131.774L139.748 147.152L149.187 145.722L152.924 142.75C154.864 140.543 156.873 138.136 158.94 135.515L160.013 136.348C158.165 138.69 156.363 140.866 154.611 142.883L153.864 143.739C153.422 144.24 152.984 144.731 152.55 145.213L170.734 142.459L154.849 159.613L160.937 162.347L160.459 163.855L149.627 165.253L148.105 166.897L156.311 178.478L137.704 178.13L130.396 186.021L129.215 185.419L131.801 178.019L125.197 177.896L127.609 165.523C126.761 165.881 123.495 166.812 122.899 166.952L125.061 164.914L127.137 163.262L106.956 152.118L130.93 148.487ZM153.109 176.845L146.947 168.147L145.786 169.401L148.26 177.357L146.129 176.712L144.516 170.772L139.135 176.583L153.109 176.845ZM155.984 162.798L153.315 161.505L151.244 163.507L155.984 162.798ZM153.377 159.017L163.813 147.165L149.646 148.374C146.987 151.229 145.736 152.327 143.383 154.464L153.377 159.017ZM143.245 160.036L146.168 164.162L149.14 163.778L152.042 160.473L142.07 155.706L143.245 160.036ZM147.302 165.763L147.523 165.525L147.166 165.571L147.302 165.763ZM145.366 167.853L146.144 167.014L145.292 165.813L144.829 165.872L145.366 167.853ZM133.44 176.949L137.5 176.614L144.097 169.225L143.242 166.077L137.185 166.859L133.44 176.949ZM130.228 184.865L136.258 178.146L133.082 178.11L130.228 184.865ZM137.748 165.248L142.839 164.591L141.854 160.959L140.108 158.495L137.748 165.248ZM125.913 177.013L132.205 177.036L135.632 167.059L134.32 167.228L129.558 164.6C129.444 164.659 129.019 164.875 128.908 164.931L125.913 177.013ZM134.881 165.618L136.195 165.448L138.611 158.534C137.714 159.248 136.851 159.906 136.023 160.51C134.291 161.774 132.708 162.808 131.294 163.637L134.881 165.618ZM141.504 153.62L142.02 153.852C143.436 152.584 144.917 151.186 146.459 149.65L141.497 153.596L141.504 153.62ZM141.105 152.151L146.66 148.129L140.274 148.755L141.105 152.151ZM129.934 162.794C131.473 161.942 133.291 160.793 135.356 159.286C136.435 158.499 137.58 157.615 138.785 156.628L138.389 156.069L129.934 162.794ZM139.79 155.16L139.89 154.875L139.697 155.029L139.79 155.16ZM129.95 161.025L139.755 153.225L138.685 148.918L132.131 149.84L129.95 161.025ZM128.299 161.983L130.621 150.069L112.028 151.971L128.299 161.983ZM132.439 148.259L138.171 147.391L134.933 135.46L132.439 148.259Z" fill="#CE3732"/>
<path d="M168.492 130.023V159.865H211.882V130.023H168.492Z" fill="#0D3D2B"/>
</svg>
