<svg width="102" height="86" viewBox="0 0 102 86" fill="none" xmlns="http://www.w3.org/2000/svg">
<path d="M24.4253 2.19828L0 1.46552V0H24.4253V2.19828Z" fill="#0D3D2B"/>
<path d="M13.9225 57.3997H4.15234V58.8652H13.9225V57.3997Z" fill="#0D3D2B"/>
<path d="M93.33 69.426L14.79 69.1993V67.8393L93.33 67.386V69.426Z" fill="#0D3D2B"/>
<path d="M16.1211 69.3677V54.9568H13.9228V69.3677H16.1211Z" fill="#0D3D2B"/>
<path d="M24.4257 52.5142H13.9229V54.9567H24.4257V52.5142Z" fill="#0D3D2B"/>
<path d="M24.4256 0.244385V54.4685H22.9601L20.5176 0.244385H24.4256Z" fill="#0D3D2B"/>
<path d="M80.3636 67.5512C87.1919 67.5512 92.7273 62.0159 92.7273 55.1876C92.7273 48.3594 87.1919 42.824 80.3636 42.824C73.5354 42.824 68 48.3594 68 55.1876C68 62.0159 73.5354 67.5512 80.3636 67.5512Z" fill="#CE3732"/>
<path d="M14.5792 27.3558L19.2957 21.2495H2.64746L14.5792 27.3558Z" fill="#0D3D2B"/>
<path d="M6.77539 58.408L14.4107 61.7957L15.1142 58.9184L6.77539 58.408Z" fill="#0D3D2B"/>
<path d="M86.6258 83.0642C85.7094 83.0642 84.9042 82.8596 84.2102 82.4503C83.5162 82.041 82.969 81.4761 82.5687 80.7554C82.1772 80.0258 81.9814 79.185 81.9814 78.233C81.9814 77.281 82.1772 76.4447 82.5687 75.724C82.969 74.9945 83.5162 74.425 84.2102 74.0158C84.9042 73.6065 85.7094 73.4019 86.6258 73.4019C87.5422 73.4019 88.3518 73.6065 89.0547 74.0158C89.7576 74.425 90.3003 74.9945 90.6829 75.724C91.0744 76.4447 91.2701 77.281 91.2701 78.233C91.2701 79.185 91.0744 80.0258 90.6829 80.7554C90.3003 81.4761 89.7576 82.041 89.0547 82.4503C88.3518 82.8596 87.5422 83.0642 86.6258 83.0642ZM86.6258 81.2625C87.1685 81.2625 87.6312 81.138 88.0137 80.8888C88.4052 80.6397 88.7077 80.2927 88.9213 79.8479C89.1348 79.3941 89.2416 78.8558 89.2416 78.233C89.2416 77.6102 89.1348 77.0764 88.9213 76.6315C88.7077 76.1778 88.4052 75.8308 88.0137 75.5906C87.6312 75.3414 87.1685 75.2169 86.6258 75.2169C86.1008 75.2169 85.6426 75.3414 85.2512 75.5906C84.8597 75.8308 84.5572 76.1778 84.3437 76.6315C84.1301 77.0764 84.0234 77.6102 84.0234 78.233C84.0234 78.8558 84.1301 79.3941 84.3437 79.8479C84.5572 80.2927 84.8597 80.6397 85.2512 80.8888C85.6426 81.138 86.1008 81.2625 86.6258 81.2625Z" fill="#0D3D2B"/>
<path d="M73.4014 82.7439V73.4019H77.0314C77.7877 73.4019 78.4149 73.5353 78.9132 73.8022C79.4203 74.0602 79.794 74.4072 80.0342 74.8432C80.2833 75.2792 80.4079 75.7641 80.4079 76.2979C80.4079 76.7961 80.2878 77.2632 80.0476 77.6992C79.8162 78.1352 79.4515 78.4866 78.9532 78.7535C78.455 79.0204 77.8099 79.1539 77.0181 79.1539H75.4032V82.7439H73.4014ZM78.2192 82.7439L76.3374 78.6601H78.4861L80.488 82.7439H78.2192ZM75.4032 77.7125H76.9113C77.4096 77.7125 77.7743 77.5924 78.0057 77.3522C78.2459 77.112 78.366 76.7872 78.366 76.378C78.366 75.9776 78.2459 75.6617 78.0057 75.4304C77.7743 75.1902 77.4096 75.0701 76.9113 75.0701H75.4032V77.7125Z" fill="#0D3D2B"/>
<path d="M58.1494 82.7439V73.4019H60.1513V76.9385L63.381 73.4019H65.8366L62.4067 77.0986L65.9567 82.7439H63.5011L60.9787 78.6468L60.1513 79.5409V82.7439H58.1494Z" fill="#0D3D2B"/>
<path d="M52.2062 83.0642C51.5389 83.0642 50.9339 82.953 50.3912 82.7306C49.8574 82.4992 49.4348 82.1611 49.1233 81.7163C48.8119 81.2714 48.6429 80.7242 48.6162 80.0748H50.7515C50.7604 80.3328 50.8272 80.5597 50.9517 80.7554C51.0763 80.9511 51.2453 81.1068 51.4589 81.2225C51.6724 81.3293 51.9215 81.3826 52.2062 81.3826C52.4465 81.3826 52.6555 81.3471 52.8335 81.2759C53.0203 81.1958 53.1671 81.0846 53.2739 80.9422C53.3807 80.791 53.434 80.6041 53.434 80.3817C53.434 80.1504 53.3718 79.9546 53.2472 79.7945C53.1226 79.6254 52.9536 79.4831 52.7401 79.3674C52.5265 79.2429 52.2774 79.1316 51.9927 79.0338C51.7169 78.927 51.4188 78.8247 51.0985 78.7268C50.3601 78.4866 49.7906 78.1619 49.3903 77.7526C48.9988 77.3433 48.8031 76.7961 48.8031 76.1111C48.8031 75.5416 48.941 75.0567 49.2168 74.6564C49.5015 74.2471 49.8885 73.9357 50.3779 73.7222C50.8672 73.5086 51.4233 73.4019 52.0461 73.4019C52.6867 73.4019 53.2516 73.5131 53.741 73.7355C54.2303 73.949 54.6174 74.2649 54.9021 74.6831C55.1868 75.0923 55.338 75.5817 55.3558 76.1511H53.2072C53.1983 75.9554 53.1404 75.7774 53.0337 75.6173C52.9358 75.4571 52.7979 75.3281 52.6199 75.2302C52.4509 75.1324 52.2507 75.0834 52.0194 75.0834C51.8148 75.0745 51.6279 75.1057 51.4589 75.1768C51.2987 75.2391 51.1653 75.3414 51.0585 75.4838C50.9606 75.6173 50.9117 75.7863 50.9117 75.9909C50.9117 76.1867 50.9606 76.3602 51.0585 76.5114C51.1653 76.6538 51.3076 76.7783 51.4856 76.8851C51.6724 76.983 51.8859 77.0764 52.1262 77.1654C52.3753 77.2543 52.6466 77.3433 52.9402 77.4323C53.4118 77.5924 53.8433 77.7837 54.2348 78.0062C54.6352 78.2197 54.9555 78.5044 55.1957 78.8603C55.4448 79.2073 55.5694 79.6699 55.5694 80.2482C55.5694 80.7554 55.4359 81.2225 55.169 81.6496C54.911 82.0766 54.5328 82.4192 54.0346 82.6772C53.5453 82.9352 52.9358 83.0642 52.2062 83.0642Z" fill="#0D3D2B"/>
<path d="M43.8506 82.7439V73.4019H45.8525V82.7439H43.8506Z" fill="#0D3D2B"/>
<path d="M36.1023 83.0642C35.1859 83.0642 34.3807 82.8596 33.6868 82.4503C32.9928 82.041 32.4456 81.4761 32.0452 80.7554C31.6537 80.0258 31.458 79.185 31.458 78.233C31.458 77.281 31.6537 76.4447 32.0452 75.724C32.4456 74.9945 32.9928 74.425 33.6868 74.0158C34.3807 73.6065 35.1859 73.4019 36.1023 73.4019C37.0188 73.4019 37.8284 73.6065 38.5313 74.0158C39.2342 74.425 39.7769 74.9945 40.1595 75.724C40.5509 76.4447 40.7467 77.281 40.7467 78.233C40.7467 79.185 40.5509 80.0258 40.1595 80.7554C39.7769 81.4761 39.2342 82.041 38.5313 82.4503C37.8284 82.8596 37.0188 83.0642 36.1023 83.0642ZM36.1023 81.2625C36.6451 81.2625 37.1077 81.138 37.4903 80.8888C37.8818 80.6397 38.1843 80.2927 38.3978 79.8479C38.6114 79.3941 38.7181 78.8558 38.7181 78.233C38.7181 77.6102 38.6114 77.0764 38.3978 76.6315C38.1843 76.1778 37.8818 75.8308 37.4903 75.5906C37.1077 75.3414 36.6451 75.2169 36.1023 75.2169C35.5774 75.2169 35.1192 75.3414 34.7277 75.5906C34.3363 75.8308 34.0337 76.1778 33.8202 76.6315C33.6067 77.0764 33.4999 77.6102 33.4999 78.233C33.4999 78.8558 33.6067 79.3941 33.8202 79.8479C34.0337 80.2927 34.3363 80.6397 34.7277 80.8888C35.1192 81.138 35.5774 81.2625 36.1023 81.2625Z" fill="#0D3D2B"/>
<path d="M25.5871 82.7439V75.0167H22.8779V73.4019H30.2982V75.0167H27.589V82.7439H25.5871Z" fill="#0D3D2B"/>
<path d="M17.8888 83.0642C17.2216 83.0642 16.6165 82.953 16.0738 82.7306C15.54 82.4992 15.1174 82.1611 14.806 81.7163C14.4946 81.2714 14.3255 80.7242 14.2988 80.0748H16.4342C16.4431 80.3328 16.5098 80.5597 16.6343 80.7554C16.7589 80.9511 16.9279 81.1068 17.1415 81.2225C17.355 81.3293 17.6041 81.3826 17.8888 81.3826C18.1291 81.3826 18.3382 81.3471 18.5161 81.2759C18.7029 81.1958 18.8497 81.0846 18.9565 80.9422C19.0633 80.791 19.1167 80.6041 19.1167 80.3817C19.1167 80.1504 19.0544 79.9546 18.9298 79.7945C18.8053 79.6254 18.6362 79.4831 18.4227 79.3674C18.2091 79.2429 17.96 79.1316 17.6753 79.0338C17.3995 78.927 17.1014 78.8247 16.7811 78.7268C16.0427 78.4866 15.4733 78.1619 15.0729 77.7526C14.6814 77.3433 14.4857 76.7961 14.4857 76.1111C14.4857 75.5416 14.6236 75.0567 14.8994 74.6564C15.1841 74.2471 15.5711 73.9357 16.0605 73.7222C16.5498 73.5086 17.1059 73.4019 17.7287 73.4019C18.3693 73.4019 18.9343 73.5131 19.4236 73.7355C19.913 73.949 20.3 74.2649 20.5847 74.6831C20.8694 75.0923 21.0207 75.5817 21.0385 76.1511H18.8898C18.8809 75.9554 18.8231 75.7774 18.7163 75.6173C18.6184 75.4571 18.4805 75.3281 18.3026 75.2302C18.1335 75.1324 17.9333 75.0834 17.702 75.0834C17.4974 75.0745 17.3105 75.1057 17.1415 75.1768C16.9813 75.2391 16.8479 75.3414 16.7411 75.4838C16.6432 75.6173 16.5943 75.7863 16.5943 75.9909C16.5943 76.1867 16.6432 76.3602 16.7411 76.5114C16.8479 76.6538 16.9902 76.7783 17.1682 76.8851C17.355 76.983 17.5685 77.0764 17.8088 77.1654C18.0579 77.2543 18.3293 77.3433 18.6229 77.4323C19.0944 77.5924 19.5259 77.7837 19.9174 78.0062C20.3178 78.2197 20.6381 78.5044 20.8783 78.8603C21.1274 79.2073 21.252 79.6699 21.252 80.2482C21.252 80.7554 21.1185 81.2225 20.8516 81.6496C20.5936 82.0766 20.2155 82.4192 19.7172 82.6772C19.2279 82.9352 18.6184 83.0642 17.8888 83.0642Z" fill="#0D3D2B"/>
</svg>
