<svg width="218" height="70" viewBox="0 0 218 70" fill="none" xmlns="http://www.w3.org/2000/svg">
<rect width="43.7621" height="43.7621" rx="21.8811" transform="matrix(4.37114e-08 -1 -1 -4.37114e-08 155.324 43.7621)" fill="#CE3732"/>
<path d="M207.445 15.5865L209.495 21.8781L134.625 51.3784L133.86 49.0303L207.445 15.5865Z" fill="#0D3D2B"/>
<path d="M9.58032 14.4496L11.6456 7.79314L131.25 49.4766L130.479 51.9609L9.58032 14.4496Z" fill="#0D3D2B"/>
<path d="M214.822 41.2834L215.628 47.957L134.161 57.427L133.86 54.9363L214.822 41.2834Z" fill="#0D3D2B"/>
<path d="M217.069 61.903L217.069 67.5035L4.10125 68.5551L4.2526 64.0937L217.069 61.903Z" fill="#0D3D2B"/>
<path d="M0.931152 51.3586L1.22307 45.3058L131.79 55.4055L131.682 57.6645L0.931152 51.3586Z" fill="#0D3D2B"/>
</svg>
