<svg width="210" height="47" viewBox="0 0 210 47" fill="none" xmlns="http://www.w3.org/2000/svg">
<path d="M210 44.5L210 46.0996L8.74228e-08 46.0996L-8.74228e-08 42.5L210 44.5Z" fill="#0D3D2B"/>
<path d="M110.5 0.900391C116.087 0.900391 121.177 3.03142 125 6.52539C120.698 10.4568 118 16.1136 118 22.4004C118 28.6867 120.699 34.3421 125 38.2734C121.177 41.7678 116.088 43.9004 110.5 43.9004H109.5C97.626 43.9004 88.0001 34.2744 88 22.4004C88 10.5263 97.6259 0.90039 109.5 0.900391H110.5ZM140.5 0.900391C152.374 0.900391 162 10.5263 162 22.4004C162 34.2744 152.374 43.9004 140.5 43.9004H139.5C133.912 43.9004 128.823 41.7678 125 38.2734C129.301 34.3421 132 28.6867 132 22.4004C132 16.1136 129.302 10.4568 125 6.52539C128.823 3.03142 133.913 0.90039 139.5 0.900391H140.5Z" fill="#CE3732"/>
</svg>
