<svg width="179" height="196" viewBox="0 0 179 196" fill="none" xmlns="http://www.w3.org/2000/svg">
<g clip-path="url(#clip0_1297_4303)">
<path d="M178.619 86.6299H55.2793V140.81H178.619V86.6299Z" fill="#0D3D2B"/>
<path d="M155.719 134.12H55.2793V195.66H155.719V134.12Z" fill="#0D3D2B"/>
<path d="M178.629 0V103.35H55.2891V0H178.629ZM106.829 49.84L145.369 61.05L159.689 42.82L106.829 49.84Z" fill="#0D3D2B"/>
<path d="M166.91 160.56L121.06 161.73L118.86 163.68H166.51L165.46 171.95L120.65 173.09L118.5 175.03L165.07 175.06L164.44 180.05L128.39 187.97L2.49 184.73L0 138.44L25.93 139.09L49.77 124.25L97.55 127.85L98.71 136.19L67.46 137.32L65.94 138.86L99.08 138.62L99.1 138.43L137.48 138.99L168.65 146.73L166.9 160.54L166.91 160.56ZM120 150.79L117.72 152.74L167.64 152.7L167.97 149.58L120 150.8V150.79Z" fill="#CE3732"/>
<path d="M141.48 57.98C145.35 57.98 148.48 54.85 148.48 50.98C148.48 47.11 145.35 43.98 141.48 43.98C137.61 43.98 134.48 47.11 134.48 50.98C134.48 54.85 137.61 57.98 141.48 57.98Z" fill="#0D3D2B"/>
</g>
<defs>
<clipPath id="clip0_1297_4303">
<rect width="178.63" height="195.67" fill="white"/>
</clipPath>
</defs>
</svg>
