<?xml version="1.0" encoding="UTF-8"?>
<svg id="Layer_1" data-name="Layer 1" xmlns="http://www.w3.org/2000/svg" viewBox="0 0 178.63 195.67">
  <defs>
    <style>
      .cls-1 {
        fill: #0d3d2b;
      }

      .cls-2 {
        fill: #ce3732;
      }
    </style>
  </defs>
  <rect class="cls-1" x="55.28" y="86.63" width="123.34" height="54.18"/>
  <rect class="cls-1" x="55.28" y="134.12" width="100.44" height="61.54"/>
  <path class="cls-1" d="M178.63,0v103.35H55.29V0h123.34ZM106.83,49.84l38.54,11.21,14.32-18.23-52.86,7.02Z"/>
  <path class="cls-2" d="M166.91,160.56l-45.85,1.17-2.2,1.95h47.65s-1.05,8.27-1.05,8.27l-44.81,1.14-2.15,1.94,46.57.03-.63,4.99-36.05,7.92-125.9-3.24-2.49-46.29,25.93.65,23.84-14.84,47.78,3.6,1.16,8.34-31.25,1.13-1.52,1.54,33.14-.24.02-.19,38.38.56,31.17,7.74-1.75,13.81ZM120,150.79l-2.28,1.95,49.92-.04.33-3.12-47.97,1.22Z"/>
  <path class="cls-1" d="M141.48,57.98c3.87,0,7-3.13,7-7s-3.13-7-7-7-7,3.13-7,7,3.13,7,7,7Z"/>
</svg>