<svg width="212" height="231" viewBox="0 0 212 231" fill="none" xmlns="http://www.w3.org/2000/svg">
<rect width="212" height="231" fill="#FDFDFC"/>
<rect x="110.273" y="107.295" width="95.7265" height="55.3846" fill="#CE3732"/>
<rect x="128.051" y="155.842" width="77.9487" height="56.4103" fill="#CE3732"/>
<path d="M83.9482 155.842V173.276L48.7363 171.227V174.646L57.8662 174.911L83.9482 186.782V212.252H6V155.842H83.9482ZM83.9492 173.277V186.783L83.9482 186.782V173.276L83.9492 173.277Z" fill="#0D3D2B"/>
<path d="M206 124.389H110.273V18.748H206V124.389ZM120.341 69.585L133.886 86.3174L160.953 66.6914L120.341 69.585Z" fill="#CE3732"/>
<path d="M101.727 18.748V162.509H6V18.748H101.727ZM46.3418 68.8818L75.9141 85.9277L87.0254 67.2949L46.3418 68.8818Z" fill="#0D3D2B"/>
<path d="M80.5 82C84.6421 82 88 78.6421 88 74.5C88 70.3579 84.6421 67 80.5 67C76.3579 67 73 70.3579 73 74.5C73 78.6421 76.3579 82 80.5 82Z" fill="#0D3D2B"/>
<path d="M132.5 82C136.642 82 140 78.6421 140 74.5C140 70.3579 136.642 67 132.5 67C128.358 67 125 70.3579 125 74.5C125 78.6421 128.358 82 132.5 82Z" fill="#CE3732"/>
</svg>
