<svg width="119" height="218" viewBox="0 0 119 218" fill="none" xmlns="http://www.w3.org/2000/svg">
<rect y="111.45" width="91.5134" height="52.947" fill="#0D3D2B"/>
<path d="M80.0495 28.1618L65.8775 20.6865L64.7282 21.5618L73.7299 33.9624L66.9654 40.1708L62.4854 41.1767C59.6616 41.2988 56.6471 41.3522 53.4366 41.3199L53.414 42.6255C56.2829 42.6544 58.9995 42.6162 61.5674 42.5214L62.6591 42.4774C63.3009 42.4493 63.933 42.4173 64.5557 42.3823L51.5239 54.3426L73.9556 52.7906L72.3308 58.9998L73.7489 59.552L81.3302 52.2806L83.479 52.1319L87.2042 65.2646L98.1673 51.1158L108.486 50.4021L108.748 49.1543L101.644 46.6277L105.536 41.6064L94.8137 35.9502C95.5933 35.5311 98.2606 33.646 98.7245 33.284L95.8937 33.6743L93.4044 34.2331L97.2302 12.3934L80.0495 28.1618ZM87.9128 61.8808L85.1146 52.0189L86.7533 51.9054L91.2212 58.5577L92.0233 56.5719L88.5465 51.7813L96.1455 51.2556L87.9128 61.8808ZM75.6563 55.5623L76.298 52.7828L79.0464 52.4387L75.6563 55.5623ZM74.3963 51.328L59.2237 51.9971L68.6751 42.1143C72.4179 41.8438 73.9947 41.569 77.0149 41.0956L74.3963 51.328ZM81.272 44.3536L82.5991 49.031L80.5189 51.0262L76.2928 51.2069L78.7369 40.8611L81.272 44.3536ZM83.1143 50.8467L82.8026 50.8681L83.0522 50.6288L83.1143 50.8467ZM85.8473 50.6573L84.7498 50.7332L84.3637 49.3712L84.6882 49.0597L85.8473 50.6573ZM99.8548 47.2106L97.1545 50.0491L87.6405 50.5336L85.7982 47.9949L90.0378 43.9286L99.8548 47.2106ZM107.721 49.5786L99.0513 50.0428L100.94 47.6423L107.721 49.5786ZM88.4916 43.3789L84.9283 46.7969L82.8021 43.8677L82.0095 41.0734L88.4916 43.3789ZM104.443 41.61L100.665 46.3372L91.1246 42.8864L92.0425 42.0055L92.9458 36.8534C93.0592 36.8036 93.4775 36.6155 93.5868 36.566L104.443 41.61ZM90.4979 41.4545L89.5784 42.3363L82.9421 39.9761C84.0178 39.7349 85.0312 39.4854 85.9828 39.2296C87.9747 38.6943 89.704 38.1318 91.1778 37.5731L90.4979 41.4545ZM77.5161 39.1792L77.3786 39.7059C75.5746 40.0011 73.634 40.268 71.5531 40.4961L77.5023 39.1597L77.5161 39.1792ZM76.6563 37.9947L70.293 39.7295L74.614 35.3232L76.6563 37.9947ZM91.367 36.0462C89.8003 36.6852 87.8429 37.3532 85.469 37.9913C84.2278 38.3249 82.8753 38.649 81.4091 38.9566L81.2292 38.3229L91.367 36.0462ZM79.7034 38.8246L79.4294 38.7268L79.6611 38.6751L79.7034 38.8246ZM90.0318 34.9909L78.2752 37.6309L75.6943 34.2313L80.3389 29.8779L90.0318 34.9909ZM91.7455 34.3317L81.4206 28.8851L94.0606 16.1042L91.7455 34.3317ZM78.9683 29.1547L74.8601 32.9251L67.8762 23.3033L78.9683 29.1547Z" fill="#CE3732"/>
<path d="M71.7821 32.1203L74.8483 16.3938L76.2509 16.0476L80.2635 30.8362L89.3417 29.4615L92.9349 26.603C94.8011 24.4802 96.7333 22.1658 98.7218 19.645L99.7529 20.4462C97.976 22.6989 96.2424 24.7908 94.5581 26.7314L93.8391 27.5541C93.4147 28.0363 92.9933 28.5086 92.5755 28.9716L110.064 26.3229L94.7867 42.8209L100.642 45.4497L100.183 46.9006L89.7642 48.2448L88.3007 49.8252L96.1929 60.9634L78.297 60.6282L71.2693 68.2175L70.1335 67.6386L72.6205 60.5215L66.269 60.4031L68.5883 48.5045C67.7729 48.8489 64.6318 49.744 64.0588 49.8783L66.1383 47.9183L68.1348 46.3299L48.7251 35.6121L71.7821 32.1203ZM93.113 59.3929L87.1869 51.0282L86.0707 52.2334L88.4497 59.8856L86.4 59.2648L84.8493 53.5522L79.6739 59.1411L93.113 59.3929ZM95.8788 45.8839L93.3115 44.6404L91.3197 46.5652L95.8788 45.8839ZM93.3711 42.2468L103.408 30.8489L89.7831 32.012C87.225 34.7575 86.022 35.8133 83.759 37.8687L93.3711 42.2468ZM83.6266 43.2278L86.4374 47.195L89.2961 46.8262L92.0874 43.648L82.4964 39.0628L83.6266 43.2278ZM87.5284 48.7351L87.7406 48.5058L87.3977 48.55L87.5284 48.7351ZM85.6668 50.7449L86.4143 49.9378L85.5956 48.7828L85.1495 48.8402L85.6668 50.7449ZM74.1969 59.4932L78.1014 59.1703L84.4458 52.064L83.624 49.0369L77.7978 49.7886L74.1969 59.4932ZM71.1077 67.1053L76.9068 60.6437L73.8524 60.6093L71.1077 67.1053ZM78.3395 48.2396L83.2364 47.608L82.2885 44.1147L80.6093 41.7449L78.3395 48.2396ZM66.9573 59.5541L73.0086 59.5764L76.3045 49.9814L75.0426 50.1439L70.4633 47.6161C70.3534 47.6732 69.9445 47.8811 69.8374 47.9351L66.9573 59.5541ZM75.5823 48.5953L76.8458 48.4322L79.1696 41.783C78.3071 42.4696 77.4772 43.1024 76.6812 43.6832C75.0149 44.8988 73.4922 45.893 72.1327 46.6904L75.5823 48.5953ZM81.9521 37.0571L82.4486 37.2804C83.8099 36.0605 85.2349 34.7163 86.7177 33.2386L81.9455 37.0341L81.9521 37.0571ZM81.5687 35.6446L86.911 31.7764L80.7689 32.3784L81.5687 35.6446ZM70.8249 45.8802C72.3051 45.0607 74.0531 43.9551 76.0389 42.5063C77.0772 41.7488 78.1779 40.8987 79.3371 39.9497L78.9564 39.4121L70.8249 45.8802ZM80.304 38.5383L80.3997 38.2637L80.2141 38.4116L80.304 38.5383ZM70.8402 44.1784L80.2701 36.6773L79.2409 32.5349L72.9372 33.4221L70.8402 44.1784ZM69.2521 45.0997L71.4855 33.6418L53.6032 35.4708L69.2521 45.0997ZM73.2335 31.901L78.7468 31.066L75.6328 19.5917L73.2335 31.901Z" fill="#CE3732"/>
<path d="M16.998 157.862V171.261H51.3145V174.529L37.1523 174.934L16.998 182.371V218H91.5156V157.862H16.998ZM16.9971 173.222L16.9932 173.223V182.373L16.998 182.371V171.261H16.9971V173.222Z" fill="#0D3D2B"/>
<path d="M0.00195312 127.792H91.5156V83.5674C64.3353 81.8835 42.8115 59.3066 42.8115 31.7021C42.8115 30.0493 42.8901 28.4142 43.041 26.8008H0.00195312V127.792ZM49.6768 78.6035L19.7715 94.292L9.14941 76.4795L49.6768 78.6035Z" fill="#0D3D2B"/>
</svg>
