<svg width="26" height="32" viewBox="0 0 26 32" fill="none" xmlns="http://www.w3.org/2000/svg">
<path d="M11.2759 1.46763L0.5 1.14435V0.497803H11.2759V1.46763Z" fill="#0D3D2B"/>
<path d="M6.64225 25.821H2.33191V26.4676H6.64225V25.821Z" fill="#0D3D2B"/>
<path d="M25.5 31.2091L6.96552 31.1013V30.4548L25.5 30.2393V31.2091Z" fill="#0D3D2B"/>
<path d="M7.61206 31.1012V24.7434H6.64223V31.1012H7.61206Z" fill="#0D3D2B"/>
<path d="M11.2759 23.666H6.64227V24.7436H11.2759V23.666Z" fill="#0D3D2B"/>
<path d="M11.2758 0.605713V24.5281H10.6293L9.5517 0.605713H11.2758Z" fill="#0D3D2B"/>
<path d="M20.1659 30.4546C22.6952 30.4546 24.7457 28.4042 24.7457 25.8749C24.7457 23.3456 22.6952 21.2952 20.1659 21.2952C17.6366 21.2952 15.5862 23.3456 15.5862 25.8749C15.5862 28.4042 17.6366 30.4546 20.1659 30.4546Z" fill="#CE3732"/>
<path d="M6.9321 12.5668L9.01292 9.8728H1.66809L6.9321 12.5668Z" fill="#0D3D2B"/>
<path d="M3.4892 26.2661L6.85773 27.7607L7.16808 26.4913L3.4892 26.2661Z" fill="#0D3D2B"/>
</svg>
