<svg width="51" height="43" viewBox="0 0 51 43" fill="none" xmlns="http://www.w3.org/2000/svg">
<path d="M12.2126 1.10504L0 0.736693V0H12.2126V1.10504Z" fill="#0D3D2B"/>
<path d="M6.96123 28.854H2.07617V29.5907H6.96123V28.854Z" fill="#0D3D2B"/>
<path d="M46.665 34.8995L7.39502 34.7856V34.1019L46.665 33.874V34.8995Z" fill="#0D3D2B"/>
<path d="M8.0603 34.8701V27.626H6.96117V34.8701H8.0603Z" fill="#0D3D2B"/>
<path d="M12.2126 26.3979H6.96118V27.6258H12.2126V26.3979Z" fill="#0D3D2B"/>
<path d="M12.2126 0.122803V27.3805H11.4798L10.2585 0.122803H12.2126Z" fill="#0D3D2B"/>
<path d="M40.1818 33.9571C43.5959 33.9571 46.3636 31.1746 46.3636 27.7421C46.3636 24.3097 43.5959 21.5271 40.1818 21.5271C36.7677 21.5271 34 24.3097 34 27.7421C34 31.1746 36.7677 33.9571 40.1818 33.9571Z" fill="#CE3732"/>
<path d="M7.28985 13.7512L9.64811 10.6816H1.32397L7.28985 13.7512Z" fill="#0D3D2B"/>
<path d="M3.3877 29.3608L7.20537 31.0638L7.55709 29.6175L3.3877 29.3608Z" fill="#0D3D2B"/>
<path d="M43.3126 41.7551C42.8544 41.7551 42.4518 41.6522 42.1049 41.4465C41.7579 41.2407 41.4843 40.9567 41.2841 40.5945C41.0884 40.2277 40.9905 39.8051 40.9905 39.3265C40.9905 38.848 41.0884 38.4275 41.2841 38.0653C41.4843 37.6985 41.7579 37.4123 42.1049 37.2066C42.4518 37.0008 42.8544 36.8979 43.3126 36.8979C43.7709 36.8979 44.1757 37.0008 44.5271 37.2066C44.8786 37.4123 45.1499 37.6985 45.3412 38.0653C45.5369 38.4275 45.6348 38.848 45.6348 39.3265C45.6348 39.8051 45.5369 40.2277 45.3412 40.5945C45.1499 40.9567 44.8786 41.2407 44.5271 41.4465C44.1757 41.6522 43.7709 41.7551 43.3126 41.7551ZM43.3126 40.8494C43.584 40.8494 43.8153 40.7868 44.0066 40.6615C44.2024 40.5363 44.3536 40.3619 44.4604 40.1383C44.5672 39.9102 44.6205 39.6396 44.6205 39.3265C44.6205 39.0134 44.5672 38.7451 44.4604 38.5215C44.3536 38.2934 44.2024 38.1189 44.0066 37.9982C43.8153 37.873 43.584 37.8103 43.3126 37.8103C43.0502 37.8103 42.8211 37.873 42.6253 37.9982C42.4296 38.1189 42.2783 38.2934 42.1716 38.5215C42.0648 38.7451 42.0114 39.0134 42.0114 39.3265C42.0114 39.6396 42.0648 39.9102 42.1716 40.1383C42.2783 40.3619 42.4296 40.5363 42.6253 40.6615C42.8211 40.7868 43.0502 40.8494 43.3126 40.8494Z" fill="#0D3D2B"/>
<path d="M36.7009 41.5941V36.8979H38.516C38.8941 36.8979 39.2077 36.965 39.4568 37.0992C39.7104 37.2289 39.8972 37.4033 40.0174 37.6225C40.1419 37.8416 40.2042 38.0854 40.2042 38.3537C40.2042 38.6042 40.1441 38.839 40.024 39.0582C39.9084 39.2773 39.726 39.454 39.4769 39.5882C39.2277 39.7223 38.9052 39.7894 38.5093 39.7894H37.7019V41.5941H36.7009ZM39.1098 41.5941L38.169 39.5412H39.2433L40.2442 41.5941H39.1098ZM37.7019 39.0649H38.4559C38.705 39.0649 38.8874 39.0045 39.0031 38.8837C39.1232 38.763 39.1832 38.5997 39.1832 38.394C39.1832 38.1927 39.1232 38.034 39.0031 37.9177C38.8874 37.7969 38.705 37.7365 38.4559 37.7365H37.7019V39.0649Z" fill="#0D3D2B"/>
<path d="M29.0747 41.5941V36.8979H30.0756V38.6758L31.6905 36.8979H32.9183L31.2034 38.7563L32.9784 41.5941H31.7505L30.4894 39.5345L30.0756 39.984V41.5941H29.0747Z" fill="#0D3D2B"/>
<path d="M26.1034 41.7551C25.7697 41.7551 25.4672 41.6992 25.1958 41.5874C24.9289 41.4711 24.7176 41.3011 24.5619 41.0775C24.4062 40.8539 24.3217 40.5788 24.3083 40.2523H25.376C25.3805 40.382 25.4138 40.4961 25.4761 40.5945C25.5384 40.6929 25.6229 40.7711 25.7297 40.8293C25.8364 40.8829 25.961 40.9098 26.1034 40.9098C26.2235 40.9098 26.328 40.8919 26.417 40.8561C26.5104 40.8158 26.5838 40.7599 26.6372 40.6884C26.6906 40.6124 26.7173 40.5184 26.7173 40.4066C26.7173 40.2903 26.6861 40.1919 26.6238 40.1114C26.5616 40.0265 26.477 39.9549 26.3703 39.8968C26.2635 39.8341 26.1389 39.7782 25.9966 39.729C25.8587 39.6754 25.7097 39.6239 25.5495 39.5747C25.1803 39.454 24.8956 39.2907 24.6954 39.085C24.4996 38.8793 24.4018 38.6042 24.4018 38.2598C24.4018 37.9736 24.4707 37.7298 24.6086 37.5286C24.751 37.3228 24.9445 37.1663 25.1892 37.059C25.4338 36.9516 25.7119 36.8979 26.0233 36.8979C26.3436 36.8979 26.6261 36.9539 26.8707 37.0657C27.1154 37.173 27.3089 37.3318 27.4513 37.542C27.5936 37.7477 27.6693 37.9937 27.6782 38.2799H26.6038C26.5994 38.1816 26.5705 38.0921 26.5171 38.0116C26.4681 37.9311 26.3992 37.8662 26.3102 37.817C26.2257 37.7678 26.1256 37.7432 26.0099 37.7432C25.9076 37.7388 25.8142 37.7544 25.7297 37.7902C25.6496 37.8215 25.5829 37.873 25.5295 37.9445C25.4806 38.0116 25.4561 38.0966 25.4561 38.1994C25.4561 38.2978 25.4806 38.3851 25.5295 38.4611C25.5829 38.5326 25.654 38.5953 25.743 38.6489C25.8364 38.6981 25.9432 38.7451 26.0633 38.7898C26.1879 38.8345 26.3236 38.8793 26.4704 38.924C26.7061 39.0045 26.9219 39.1006 27.1176 39.2125C27.3178 39.3198 27.478 39.4629 27.5981 39.6418C27.7226 39.8162 27.7849 40.0488 27.7849 40.3395C27.7849 40.5945 27.7182 40.8293 27.5847 41.0439C27.4557 41.2586 27.2667 41.4308 27.0175 41.5605C26.7729 41.6902 26.4681 41.7551 26.1034 41.7551Z" fill="#0D3D2B"/>
<path d="M21.925 41.5941V36.8979H22.926V41.5941H21.925Z" fill="#0D3D2B"/>
<path d="M18.0509 41.7551C17.5927 41.7551 17.1901 41.6522 16.8431 41.4465C16.4961 41.2407 16.2226 40.9567 16.0224 40.5945C15.8266 40.2277 15.7288 39.8051 15.7288 39.3265C15.7288 38.848 15.8266 38.4275 16.0224 38.0653C16.2226 37.6985 16.4961 37.4123 16.8431 37.2066C17.1901 37.0008 17.5927 36.8979 18.0509 36.8979C18.5091 36.8979 18.914 37.0008 19.2654 37.2066C19.6168 37.4123 19.8882 37.6985 20.0795 38.0653C20.2752 38.4275 20.3731 38.848 20.3731 39.3265C20.3731 39.8051 20.2752 40.2277 20.0795 40.5945C19.8882 40.9567 19.6168 41.2407 19.2654 41.4465C18.914 41.6522 18.5091 41.7551 18.0509 41.7551ZM18.0509 40.8494C18.3223 40.8494 18.5536 40.7868 18.7449 40.6615C18.9406 40.5363 19.0919 40.3619 19.1987 40.1383C19.3054 39.9102 19.3588 39.6396 19.3588 39.3265C19.3588 39.0134 19.3054 38.7451 19.1987 38.5215C19.0919 38.2934 18.9406 38.1189 18.7449 37.9982C18.5536 37.873 18.3223 37.8103 18.0509 37.8103C17.7885 37.8103 17.5594 37.873 17.3636 37.9982C17.1679 38.1189 17.0166 38.2934 16.9099 38.5215C16.8031 38.7451 16.7497 39.0134 16.7497 39.3265C16.7497 39.6396 16.8031 39.9102 16.9099 40.1383C17.0166 40.3619 17.1679 40.5363 17.3636 40.6615C17.5594 40.7868 17.7885 40.8494 18.0509 40.8494Z" fill="#0D3D2B"/>
<path d="M12.7938 41.5941V37.7097H11.4392V36.8979H15.1493V37.7097H13.7947V41.5941H12.7938Z" fill="#0D3D2B"/>
<path d="M8.94442 41.7551C8.61078 41.7551 8.30827 41.6992 8.03691 41.5874C7.76999 41.4711 7.55869 41.3011 7.40298 41.0775C7.24728 40.8539 7.16276 40.5788 7.14941 40.2523H8.21708C8.22153 40.382 8.25489 40.4961 8.31717 40.5945C8.37945 40.6929 8.46397 40.7711 8.57074 40.8293C8.67751 40.8829 8.80207 40.9098 8.94442 40.9098C9.06454 40.9098 9.16908 40.8919 9.25805 40.8561C9.35147 40.8158 9.42487 40.7599 9.47826 40.6884C9.53164 40.6124 9.55833 40.5184 9.55833 40.4066C9.55833 40.2903 9.52719 40.1919 9.46491 40.1114C9.40263 40.0265 9.31811 39.9549 9.21134 39.8968C9.10457 39.8341 8.98001 39.7782 8.83766 39.729C8.69975 39.6754 8.55072 39.6239 8.39057 39.5747C8.02134 39.454 7.73663 39.2907 7.53644 39.085C7.3407 38.8793 7.24283 38.6042 7.24283 38.2598C7.24283 37.9736 7.31179 37.7298 7.44969 37.5286C7.59205 37.3228 7.78556 37.1663 8.03024 37.059C8.27491 36.9516 8.55295 36.8979 8.86435 36.8979C9.18465 36.8979 9.46713 36.9539 9.71181 37.0657C9.95648 37.173 10.15 37.3318 10.2923 37.542C10.4347 37.7477 10.5103 37.9937 10.5192 38.2799H9.44489C9.44044 38.1816 9.41153 38.0921 9.35814 38.0116C9.30921 37.9311 9.24026 37.8662 9.15128 37.817C9.06676 37.7678 8.96667 37.7432 8.851 37.7432C8.74869 37.7388 8.65526 37.7544 8.57074 37.7902C8.49067 37.8215 8.42394 37.873 8.37055 37.9445C8.32162 38.0116 8.29715 38.0966 8.29715 38.1994C8.29715 38.2978 8.32162 38.3851 8.37055 38.4611C8.42394 38.5326 8.49511 38.5953 8.58409 38.6489C8.67751 38.6981 8.78427 38.7451 8.90439 38.7898C9.02895 38.8345 9.16463 38.8793 9.31143 38.924C9.54721 39.0045 9.76297 39.1006 9.9587 39.2125C10.1589 39.3198 10.319 39.4629 10.4392 39.6418C10.5637 39.8162 10.626 40.0488 10.626 40.3395C10.626 40.5945 10.5593 40.8293 10.4258 41.0439C10.2968 41.2586 10.1077 41.4308 9.85861 41.5605C9.61394 41.6902 9.30921 41.7551 8.94442 41.7551Z" fill="#0D3D2B"/>
</svg>
