<svg width="49" height="60" viewBox="0 0 49 60" fill="none" xmlns="http://www.w3.org/2000/svg">
<g clip-path="url(#clip0_1317_3995)">
<path d="M21.1207 1.89474L0 1.26316V0H21.1207V1.89474Z" fill="#EFEAE3"/>
<path d="M12.0391 49.4736H3.59082V50.7368H12.0391V49.4736Z" fill="#EFEAE3"/>
<path d="M49.0004 60L12.6729 59.7894V58.5263L49.0004 58.1052V60Z" fill="#EFEAE3"/>
<path d="M13.9395 59.7895V47.3684H12.0386V59.7895H13.9395Z" fill="#EFEAE3"/>
<path d="M21.121 45.2632H12.0391V47.3684H21.121V45.2632Z" fill="#EFEAE3"/>
<path d="M21.1205 0.210449V46.9473H19.8533L17.7412 0.210449H21.1205Z" fill="#EFEAE3"/>
<path d="M38.5456 58.5263C43.5031 58.5263 47.5219 54.5205 47.5219 49.579C47.5219 44.6375 43.5031 40.6316 38.5456 40.6316C33.5882 40.6316 29.5693 44.6375 29.5693 49.579C29.5693 54.5205 33.5882 58.5263 38.5456 58.5263Z" fill="#EFEAE3"/>
<path d="M12.6065 23.5788L16.6849 18.3157H2.28906L12.6065 23.5788Z" fill="#EFEAE3"/>
<path d="M5.8584 50.3433L12.4607 53.2633L13.069 50.7833L5.8584 50.3433Z" fill="#EFEAE3"/>
</g>
<defs>
<clipPath id="clip0_1317_3995">
<rect width="49" height="60" fill="white"/>
</clipPath>
</defs>
</svg>
