<svg width="187" height="115" viewBox="0 0 187 115" fill="none" xmlns="http://www.w3.org/2000/svg">
<rect width="36.1542" height="36.1542" rx="18.0771" transform="matrix(-1 0 0 1 183.977 62.2051)" fill="#CE3732"/>
<path d="M93.8327 82.5107L108.63 108.141H79.0353L93.8327 82.5107Z" fill="#0D3D2B"/>
<path d="M40.9874 20.8146L59.7605 10.8486L61.2895 12.0031L49.3991 28.4714L58.4029 36.6667L64.3523 37.9795C68.1 38.1288 72.1005 38.1863 76.3606 38.1293L76.3964 39.859C72.5895 39.9098 68.9844 39.8712 65.5764 39.757L64.1275 39.7035C63.2758 39.6691 62.4369 39.6294 61.6104 39.5858L78.9564 55.3737L49.1828 53.4165L51.3663 61.6355L49.4869 62.3733L39.3945 52.7734L36.5424 52.5858L31.657 70.0008L17.0466 51.3045L3.35061 50.4045L2.99805 48.7526L12.4127 45.3739L7.22673 38.7387L21.4298 31.1979C20.3934 30.6462 16.8456 28.1605 16.2284 27.6829L19.9865 28.1875L23.2924 28.9169L18.1191 0L40.9874 20.8146ZM30.7019 65.5211L34.3715 52.4433L32.1964 52.3003L26.2969 61.1331L25.2238 58.5057L29.8163 52.1437L19.7302 51.4808L30.7019 65.5211ZM46.9382 57.096L46.0743 53.4165L42.4258 52.9727L46.9382 57.096ZM48.5915 51.4808L68.7285 52.3003L56.1428 39.249C51.1749 38.9071 49.0812 38.55 45.0714 37.9361L48.5915 51.4808ZM39.4367 42.2712L37.6963 48.4738L40.4656 51.1079L46.0743 51.3287L42.7854 37.6331L39.4367 42.2712ZM37.0207 50.8815L37.4344 50.9086L37.1022 50.5926L37.0207 50.8815ZM33.3932 50.6427L34.8498 50.7385L35.3562 48.9323L34.9242 48.5211L33.3932 50.6427ZM14.7901 46.1382L18.3859 49.8869L31.013 50.4867L33.4466 47.1154L27.8027 41.7468L14.7901 46.1382ZM4.36196 49.3102L15.8688 49.8869L13.3517 46.7149L4.36196 49.3102ZM29.8521 41.0118L34.5956 45.5243L37.4042 41.6342L38.4436 37.9288L29.8521 41.0118ZM8.67703 38.7387L13.7113 44.9847L26.3559 40.3709L25.1339 39.2079L23.9125 32.3863C23.7618 32.3208 23.2059 32.0735 23.0606 32.0084L8.67703 38.7387ZM27.1811 38.4712L28.4053 39.6354L37.2012 36.4791C35.7726 36.1643 34.4268 35.8383 33.1628 35.5036C30.5173 34.8032 28.22 34.0656 26.2618 33.3319L27.1811 38.4712ZM44.3979 35.3995L44.5826 36.0967C46.9778 36.4798 49.5542 36.8248 52.3166 37.1178L44.4161 35.3735L44.3979 35.3995ZM45.5335 33.8264L53.9853 36.0967L48.2319 30.2782L45.5335 33.8264ZM26.004 31.31C28.0858 32.1495 30.6862 33.0259 33.8392 33.8608C35.4878 34.2973 37.2839 34.7207 39.2309 35.1218L39.4669 34.2815L26.004 31.31ZM41.4938 34.9393L41.8569 34.8086L41.5493 34.7411L41.4938 34.9393ZM27.7711 29.9059L43.3837 33.3516L46.7935 28.8364L40.611 23.0894L27.7711 29.9059ZM25.4942 29.0402L39.1712 21.7788L22.3414 4.90218L25.4942 29.0402ZM42.4265 22.1252L47.8948 27.1022L57.1198 14.3241L42.4265 22.1252Z" fill="#0D3D2B"/>
<path d="M91.8725 80.1366L91.6035 81.0924L2.00004 55.868L2.80723 53.0007L91.8725 80.1366Z" fill="#0D3D2B"/>
<path d="M91.1569 79.9345L90.8879 80.8903L180.491 106.115L181.298 103.247L91.1569 79.9345Z" fill="#0D3D2B"/>
</svg>
